<svg
  width="14"
  height="14"
  viewBox="0 0 14 14"
  fill="none"
  xmlns="http://www.w3.org/2000/svg"
>
  <g clip-path="url(#clip0_275_815)">
    <path
      opacity="0.36"
      d="M6.99882 0C3.1344 0 0 3.1344 0 6.99882C0 10.8632 3.1344 13.9976 6.99882 13.9976C10.8632 13.9976 13.9976 10.8632 13.9976 6.99882C13.9976 3.1344 10.8632 0 6.99882 0ZM10.6678 7.18251H9.88595C9.88595 7.18251 9.87182 7.18722 9.87182 7.19664V9.92834C9.87182 10.0602 9.7635 10.1638 9.63162 10.1638H8.31993C8.18335 10.1638 8.07973 10.0579 8.07973 9.92834V9.43381C8.07973 9.13238 7.95728 8.86627 7.76417 8.66846C7.56636 8.47065 7.29554 8.3529 6.99882 8.3529C6.39596 8.3529 5.91791 8.86392 5.91791 9.46678V9.92599C5.91791 10.0579 5.80959 10.1615 5.67771 10.1615H4.36131C4.22944 10.1615 4.12582 10.0555 4.12582 9.92599V7.19428C4.12582 7.19428 4.1164 7.18015 4.10934 7.18015H3.33221C3.11791 7.18015 3.01194 6.92582 3.15795 6.77275L6.82691 2.94836C6.92346 2.8471 7.08124 2.8471 7.17309 2.94836L10.8421 6.77275C10.9904 6.92582 10.8821 7.18015 10.6725 7.18015L10.6678 7.18251Z"
      fill="#231815"
    />
  </g>
  <defs>
    <clipPath id="clip0_275_815">
      <rect width="14" height="14" fill="white" />
    </clipPath>
  </defs>
</svg>