<svg
  width="14"
  height="14"
  viewBox="0 0 14 14"
  fill="none"
  xmlns="http://www.w3.org/2000/svg"
>
  <g clip-path="url(#clip0_275_817)">
    <path
      opacity="0.36"
      d="M8.23549 6.99647C8.23549 7.67962 7.68425 8.23086 7.0058 8.23086C6.32736 8.23086 5.77612 7.67962 5.77612 6.99647C5.77612 6.31331 6.32265 5.76678 7.0058 5.76678C7.68896 5.76678 8.23549 6.32273 8.23549 6.99647Z"
      fill="#231815"
    />
    <path
      opacity="0.36"
      d="M7.00118 0C3.13074 0 0 3.13074 0 6.99647C0 10.8622 3.13074 13.9976 7.00118 13.9976C10.8716 13.9976 13.9976 10.8669 13.9976 6.99647C13.9976 3.12603 10.8693 0 7.00118 0ZM10.6313 8.64547C10.6313 9.74794 9.73852 10.636 8.64075 10.636H5.36867C4.27091 10.636 3.3828 9.74794 3.3828 8.64547V5.33569C3.3828 4.24264 4.27091 3.34982 5.36867 3.34982H8.64075C9.73852 3.34982 10.6313 4.24264 10.6313 5.33569V8.64547ZM8.62426 3.99764H5.38752C4.63133 3.99764 4.02827 4.60071 4.02827 5.35453V8.63133C4.02827 9.3828 4.63133 9.99058 5.38752 9.99058H8.62426C9.37574 9.99058 9.98822 9.3828 9.98822 8.63133V5.35453C9.98822 4.60306 9.37574 3.99764 8.62426 3.99764ZM7.00589 8.86455C5.97409 8.86455 5.13781 8.02591 5.13781 6.9894C5.13781 5.95289 5.97409 5.12132 7.00589 5.12132C8.03769 5.12132 8.87397 5.95995 8.87397 6.9894C8.87397 8.01885 8.03769 8.86455 7.00589 8.86455ZM8.95642 5.51943C8.69729 5.51943 8.48763 5.30978 8.48763 5.04594C8.48763 4.7821 8.69729 4.57715 8.95642 4.57715C9.21555 4.57715 9.42756 4.78681 9.42756 5.04594C9.42756 5.30506 9.2179 5.51943 8.95642 5.51943Z"
      fill="#231815"
    />
  </g>
  <defs>
    <clipPath id="clip0_275_817">
      <rect width="14" height="14" fill="white" />
    </clipPath>
  </defs>
</svg>