<svg width="10" height="10" viewBox="0 0 10 10" fill="none" xmlns="http://www.w3.org/2000/svg">
<g clip-path="url(#clip0_761_6803)">
<path d="M7 1H3C1.89543 1 1 1.89543 1 3V7C1 8.10457 1.89543 9 3 9H7C8.10457 9 9 8.10457 9 7V3C9 1.89543 8.10457 1 7 1Z" stroke="black" stroke-width="0.5" stroke-linecap="round" stroke-linejoin="round"/>
<path d="M6.33534 4.59443C6.38162 4.90652 6.32831 5.22526 6.183 5.50531C6.03768 5.78536 5.80777 6.01246 5.52595 6.1543C5.24413 6.29615 4.92476 6.34553 4.61326 6.2954C4.30176 6.24528 4.014 6.09821 3.7909 5.87511C3.56781 5.65202 3.42074 5.36426 3.37061 5.05276C3.32049 4.74126 3.36986 4.42189 3.51171 4.14007C3.65356 3.85825 3.88066 3.62833 4.16071 3.48302C4.44076 3.33771 4.7595 3.2844 5.07159 3.33068C5.38993 3.37789 5.68466 3.52623 5.91222 3.75379C6.13979 3.98136 6.28813 4.27608 6.33534 4.59443Z" stroke="black" stroke-width="0.5" stroke-linecap="round" stroke-linejoin="round"/>
<path d="M7.29297 2.70898H7.29618" stroke="black" stroke-linecap="round" stroke-linejoin="round"/>
</g>
<defs>
<clipPath id="clip0_761_6803">
<rect width="10" height="10" fill="white"/>
</clipPath>
</defs>
</svg>
