<svg width="214" height="38" viewBox="0 0 214 38" fill="none" xmlns="http://www.w3.org/2000/svg">
<path d="M164.653 34.4153V34.7008H167.464V34.4153H167.223C166.871 34.4153 166.553 34.3824 166.553 33.987V28.8917H167.805C168.365 28.8917 168.442 29.1992 168.497 29.6275H168.837L168.639 28.3207H163.27L163.083 29.6275H163.423C163.478 29.1882 163.555 28.8917 164.115 28.8917H165.367V33.987C165.367 34.3494 165.202 34.4043 164.818 34.4043H164.642L164.653 34.4153Z" fill="#767575"/>
<path d="M176.227 34.4153C175.909 34.4153 175.623 34.3714 175.623 33.998V29.0455C175.623 28.6392 175.81 28.6172 176.326 28.6172V28.3317H173.724V28.6172H173.877C174.086 28.6172 174.449 28.6721 174.449 29.0455V30.9562H171.341V29.0455C171.341 28.6392 171.538 28.6172 172.044 28.6172V28.3317H169.441V28.6172H169.595C169.803 28.6172 170.166 28.6721 170.166 29.0455V33.998C170.166 34.4043 169.946 34.4153 169.441 34.4153V34.7008H172.252V34.4153H171.956C171.626 34.4153 171.341 34.3714 171.341 33.998V31.5602H174.449V33.998C174.449 34.4043 174.229 34.4153 173.724 34.4153V34.7008H176.524V34.4153H176.227Z" fill="#767575"/>
<path d="M52.8966 28.2219C50.5027 28.2219 49.4265 29.935 49.4265 31.5163C49.4265 33.0976 50.4807 34.8216 52.8197 34.8216C54.8732 34.8216 56.3118 33.4051 56.3118 31.3735C56.3118 29.342 55.005 28.2109 52.9076 28.2109L52.8966 28.2219ZM53.1602 34.2616C51.7216 34.2616 50.7003 33.0317 50.7003 31.2637C50.7003 29.0784 51.9302 28.76 52.666 28.76C54.0387 28.76 55.005 29.9679 55.005 31.67C55.005 34.009 53.7202 34.2616 53.1602 34.2616Z" fill="#767575"/>
<path d="M68.6549 29.8361H68.3035C68.3035 29.8361 68.3474 29.4189 68.1059 29.1114C67.9851 28.9576 67.7545 28.738 67.2603 28.738C66.7112 28.738 66.3598 29.0455 66.3598 29.5177C66.3598 29.8471 66.4916 30.0997 67.2054 30.6488L67.436 30.8245C68.4573 31.6151 68.8196 32.1752 68.8196 32.9878C68.8196 33.3501 68.7098 34.02 68.007 34.4812C67.6337 34.7118 67.1944 34.8216 66.6563 34.8216C66.1731 34.8216 65.4813 34.7228 65.2288 34.4702V32.8999H65.5582C65.5582 32.8999 65.6241 33.3611 65.668 33.5039C65.8657 34.1737 66.4477 34.2836 66.7771 34.2836C67.447 34.2836 67.8094 33.8333 67.8094 33.416C67.8094 33.0207 67.6776 32.6583 67.0187 32.1532L66.6453 31.8567C65.7668 31.1759 65.3935 30.5829 65.3935 29.8581C65.3935 28.8808 66.1951 28.2219 67.3701 28.2219C68.3584 28.2219 68.6549 28.4635 68.6549 28.4635V29.8361Z" fill="#767575"/>
<path d="M73.0034 28.8917C73.5634 28.8917 73.5854 29.1992 73.5854 29.6385H73.8709V28.3317H69.7639V28.6172H69.9506C70.2361 28.6172 70.5875 28.705 70.5875 29.1772V33.7674C70.5875 34.3714 70.4118 34.4153 70.0165 34.4153H69.8737V34.7118H74.0686V33.3172H73.7611C73.7611 33.9321 73.5195 34.1518 73.0912 34.1518H71.7845V31.6041H73.0144C73.4317 31.6041 73.4426 31.7469 73.4426 32.1751H73.7391V30.462H73.4426C73.4426 30.9013 73.4426 31.0441 73.0144 31.0441H71.7845V28.9027H72.9924L73.0034 28.8917Z" fill="#767575"/>
<path d="M77.7364 34.4153C77.407 34.4153 77.1214 34.3714 77.1214 33.998V29.0564C77.1214 28.6501 77.3191 28.6172 77.8242 28.6172V28.3317H75.2217V28.6172H75.3754C75.5841 28.6172 75.9464 28.6721 75.9464 29.0564V33.998C75.9464 34.4043 75.7268 34.4153 75.2327 34.4153V34.7118H78.0439V34.4153H77.7474H77.7364Z" fill="#767575"/>
<path d="M45.3857 28.6172H45.5285V28.3317H43.1565V28.6172C43.1565 28.6172 43.4859 28.6172 43.6836 28.716C43.8483 28.8039 44.046 29.0235 44.2327 29.298C44.5292 29.7373 45.6273 31.5382 45.6712 31.659C45.781 31.9006 45.8579 32.0653 45.8579 32.5046V33.8882C45.8579 34.4153 45.5614 34.4153 45.1551 34.4153V34.7118H47.9443V34.4153H47.7357C47.3513 34.4153 47.0439 34.3824 47.0439 33.8662V32.5046C47.0439 32.23 47.0439 31.9775 47.1537 31.692C47.3074 31.3625 48.4495 29.4188 48.713 29.0894C48.8887 28.8807 48.9656 28.8149 49.1303 28.705C49.2401 28.6392 49.339 28.6062 49.4707 28.6062H49.7013V28.3207H47.5929V28.6062H47.8126C47.9004 28.6062 47.9334 28.6721 47.9334 28.749C47.9334 28.8478 47.8894 28.9686 47.8126 29.1443C47.7577 29.2651 46.6485 31.2856 46.6485 31.2856C46.6485 31.2856 45.4077 29.1443 45.3198 28.9466C45.2978 28.8917 45.21 28.7709 45.221 28.6941C45.232 28.6282 45.3088 28.6172 45.2869 28.6172C45.2869 28.6172 45.3308 28.5952 45.3857 28.5952V28.6172Z" fill="#767575"/>
<path d="M59.3867 34.4153V34.7118H57.0258V34.4153C57.3881 34.4153 57.7835 34.4483 57.7835 33.7345V28.3317H58.1788C58.9255 29.0894 62.4835 32.7791 62.5933 32.8999V29.2431C62.5933 28.5952 62.0881 28.6172 61.7587 28.6172V28.3317H63.933V28.6172C63.5926 28.6172 63.2412 28.5952 63.2412 29.2431V34.7118H62.8129L58.4314 30.2314V33.7455C58.4314 34.3604 58.7828 34.4263 59.1451 34.4263H59.3758L59.3867 34.4153Z" fill="#767575"/>
<path d="M120.201 29.8361H119.839C119.839 29.8361 119.883 29.4188 119.641 29.1223C119.52 28.9576 119.29 28.7489 118.806 28.7489C118.246 28.7489 117.895 29.0564 117.895 29.5286C117.895 29.858 118.027 30.1106 118.741 30.6597L118.971 30.8354C119.981 31.615 120.355 32.1861 120.355 32.9987C120.355 33.3611 120.256 34.0309 119.542 34.4921C119.18 34.7228 118.741 34.8326 118.191 34.8326C117.697 34.8326 117.016 34.7337 116.764 34.4812V32.9108H117.093C117.093 32.9108 117.159 33.383 117.203 33.5148C117.412 34.1847 117.983 34.2945 118.312 34.2945C118.982 34.2945 119.345 33.8443 119.345 33.427C119.345 33.0426 119.213 32.6693 118.565 32.1751L118.181 31.8676C117.313 31.1868 116.94 30.5938 116.94 29.869C116.94 28.8917 117.741 28.2328 118.927 28.2328C119.905 28.2328 120.212 28.4744 120.212 28.4744V29.8471L120.201 29.8361Z" fill="#767575"/>
<path d="M108.605 28.9026C109.176 28.9026 109.198 29.2101 109.198 29.6494H109.495V28.3426H105.388V28.6281H105.574C105.849 28.6281 106.211 28.716 106.211 29.1882V33.7783C106.211 34.3823 106.035 34.4262 105.651 34.4262H105.519V34.7117H109.703V33.3061H109.396C109.396 33.9321 109.154 34.1407 108.715 34.1407H107.397V31.5931H108.627C109.044 31.5931 109.055 31.7248 109.055 32.1751H109.352V30.462H109.055C109.055 30.9012 109.055 31.033 108.627 31.033H107.397V28.9026H108.594H108.605Z" fill="#767575"/>
<path d="M98.3923 34.4153C98.0628 34.4153 97.7773 34.3713 97.7773 33.998V29.0564C97.7773 28.6501 97.975 28.6281 98.4801 28.6281V28.3426H95.8776V28.6281H96.0203C96.229 28.6281 96.5913 28.683 96.5913 29.0564V33.998C96.5913 34.4043 96.3717 34.4153 95.8666 34.4153V34.7008H98.6778V34.4153H98.3813H98.3923Z" fill="#767575"/>
<path d="M123.693 34.4153C123.375 34.4153 123.089 34.3713 123.089 33.998V29.0564C123.089 28.6501 123.276 28.6281 123.781 28.6281V28.3426H121.179V28.6281H121.332C121.541 28.6281 121.903 28.683 121.903 29.0564V33.998C121.903 34.4043 121.695 34.4153 121.19 34.4153V34.7008H123.99V34.4153H123.704H123.693Z" fill="#767575"/>
<path d="M132.511 28.6281H132.643V28.3426H130.271V28.6281C130.271 28.6281 130.601 28.6171 130.798 28.7269C130.963 28.8148 131.161 29.0344 131.347 29.309C131.644 29.7592 132.742 31.5491 132.786 31.6699C132.896 31.9005 132.973 32.0762 132.973 32.5155V33.8991C132.973 34.4262 132.687 34.4262 132.27 34.4262V34.7117H135.059V34.4262H134.85C134.466 34.4262 134.158 34.3933 134.158 33.8772V32.5155C134.158 32.241 134.158 31.9884 134.279 31.7139C134.422 31.3844 135.564 29.4407 135.839 29.1113C136.014 28.8917 136.091 28.8258 136.256 28.7269C136.377 28.6611 136.476 28.6391 136.585 28.6391H136.816V28.3536H134.719V28.6391H134.938C135.026 28.6391 135.059 28.705 135.059 28.7819C135.059 28.8807 135.026 29.0125 134.949 29.1882C134.883 29.309 133.774 31.3295 133.774 31.3295C133.774 31.3295 132.533 29.1882 132.445 28.9905C132.412 28.9356 132.347 28.8148 132.347 28.7379C132.347 28.672 132.423 28.6611 132.401 28.6611C132.401 28.6611 132.445 28.6391 132.511 28.6391V28.6281Z" fill="#767575"/>
<path d="M90.4199 34.4153V34.7008H88.059V34.4153C88.4323 34.4153 88.8167 34.4482 88.8167 33.7344V28.3316H89.212C89.9587 29.0893 93.5167 32.779 93.6374 32.8998V29.2431C93.6374 28.5952 93.1213 28.6281 92.8029 28.6281V28.3426H94.9662V28.6281C94.6258 28.6281 94.2853 28.6062 94.2853 29.2431V34.7008H93.8681L89.4755 30.2204V33.7344C89.4755 34.3494 89.8379 34.4153 90.1893 34.4153H90.4199Z" fill="#767575"/>
<path d="M85.599 28.6281C85.8076 28.6281 86.17 28.694 86.17 29.0674V31.8127C86.17 32.7022 86.1261 33.394 85.7088 33.8223C85.3135 34.2066 84.8084 34.2505 84.6107 34.2505C84.3142 34.2505 83.9628 34.2066 83.6114 33.9211C83.2929 33.6685 82.9855 33.2403 82.9855 31.9335V29.0783C82.9855 28.672 83.1831 28.6391 83.6883 28.6391V28.3536H81.0857V28.6391H81.2394C81.4591 28.6391 81.8105 28.705 81.8105 29.0783V31.9994C81.8105 33.0645 82.0411 33.7783 82.5572 34.2286C83.2161 34.8106 84.0726 34.8106 84.446 34.8106C84.9291 34.8106 85.577 34.7447 86.203 34.2066C86.9168 33.6026 87.0046 32.6363 87.0046 31.6699V29.0783C87.0046 28.672 87.2023 28.6391 87.7074 28.6391V28.3536H85.4453V28.6391H85.588L85.599 28.6281Z" fill="#767575"/>
<path d="M125.681 34.4153V34.7008H128.492V34.4153H128.251C127.91 34.4153 127.581 34.3823 127.581 33.987V28.9027H128.833C129.393 28.9027 129.458 29.2101 129.524 29.6384H129.865L129.678 28.3316H124.308L124.111 29.6384H124.451C124.506 29.1991 124.583 28.9027 125.143 28.9027H126.395V33.998C126.395 34.3603 126.23 34.4153 125.846 34.4153H125.681Z" fill="#767575"/>
<path d="M116.907 34.4043C116.775 34.3823 116.456 34.3164 116.017 33.8772C115.589 33.4269 115.117 32.823 114.513 32.0543C114.513 32.0543 114.315 31.8127 114.26 31.7358C115.007 31.1319 115.325 30.5608 115.325 29.88C115.325 29.2541 114.952 28.8477 114.743 28.705C114.26 28.3755 113.689 28.3426 113.184 28.3316H110.735V28.6171H110.867C111.076 28.6171 111.449 28.683 111.449 29.0454V33.987C111.449 34.3494 111.284 34.4043 110.889 34.4043H110.735V34.6898H113.546V34.4043H113.272C112.942 34.4043 112.635 34.3603 112.635 33.976V32.1092H113.393L114.216 33.2952C114.71 33.965 115.018 34.3384 115.38 34.5251C115.611 34.6459 115.831 34.6898 116.292 34.6898H117.137V34.4043C116.984 34.4043 116.918 34.3823 116.918 34.3823L116.907 34.4043ZM113.766 31.4833C113.634 31.5821 113.535 31.615 113.217 31.615H112.624V28.8587H113.019C113.47 28.8587 114.216 29.1552 114.216 30.2973C114.216 31.033 113.931 31.3625 113.755 31.4833H113.766Z" fill="#767575"/>
<path d="M105.563 28.6281V28.3426H103.444V28.6281H103.685C103.773 28.6281 103.839 28.672 103.85 28.7489C103.872 28.8477 103.828 29.0125 103.784 29.1772C103.784 29.1772 102.357 32.8339 102.28 33.0206C102.225 32.8559 100.764 28.9795 100.764 28.9795C100.753 28.9356 100.688 28.8258 100.721 28.7489C100.721 28.716 100.786 28.6391 100.896 28.6391H101.138V28.3536H98.7219V28.6391C98.7219 28.6391 99.0514 28.6391 99.2271 28.7489C99.3698 28.8368 99.5016 29.0454 99.6004 29.3199L101.885 34.7886H102.148L104.663 29.1223C104.663 29.1223 104.893 28.6281 105.333 28.6391H105.563V28.6281Z" fill="#767575"/>
<path d="M151.026 28.8917C151.597 28.8917 151.608 29.1992 151.608 29.6385H151.904V28.3317H147.797V28.6172H147.995C148.269 28.6172 148.621 28.6941 148.621 29.1772V33.7564C148.621 34.3604 148.445 34.4043 148.061 34.4043H147.918V34.6898H152.113V33.2952H151.816C151.816 33.9102 151.564 34.1298 151.135 34.1298H149.818V31.5931H151.037C151.454 31.5931 151.476 31.7359 151.476 32.1641H151.772V30.4511H151.476C151.476 30.8903 151.465 31.0331 151.037 31.0331H149.818V28.8917H151.015H151.026Z" fill="#767575"/>
<path d="M152.014 34.4153V34.7008H154.232V34.4153C153.694 34.4153 153.606 34.2945 153.749 33.9211L154.243 32.5924H156.099L156.626 33.9761C156.725 34.2286 156.846 34.4263 156.56 34.4263V34.7118H158.899V34.4263C158.515 34.4263 158.119 34.4482 157.889 33.9211C157.889 33.9211 155.912 29.0674 155.627 28.3536H155.176L152.903 33.9761C152.728 34.3714 152.486 34.4153 152.222 34.4153H152.003H152.014ZM155.89 32.0104H154.474L155.198 30.0887L155.89 32.0104Z" fill="#767575"/>
<path d="M161.392 34.1408C161.062 34.1408 160.777 34.0859 160.777 33.7235V29.0455C160.777 28.6392 160.975 28.6172 161.48 28.6172V28.3317H158.877V28.6172H159.02C159.239 28.6172 159.591 28.6721 159.591 29.0455V33.998C159.591 34.4043 159.382 34.4153 158.877 34.4153V34.7008H163.259V33.3062H162.951C162.951 33.9212 162.71 34.1408 162.281 34.1408H161.381H161.392Z" fill="#767575"/>
<path d="M146.666 34.4153C146.336 34.4153 146.051 34.3714 146.051 33.998V29.0455C146.051 28.6392 146.249 28.6172 146.754 28.6172V28.3317H144.151V28.6172H144.294C144.502 28.6172 144.865 28.6721 144.865 29.0455V30.9562H141.768V29.0455C141.768 28.6392 141.955 28.6172 142.471 28.6172V28.3317H139.868V28.6172H140.022C140.231 28.6172 140.582 28.6721 140.582 29.0455V33.998C140.582 34.4043 140.374 34.4153 139.868 34.4153V34.7008H142.68V34.4153H142.383C142.054 34.4153 141.768 34.3714 141.768 33.998V31.5602H144.865V33.998C144.865 34.4043 144.656 34.4153 144.151 34.4153V34.7008H146.962V34.4153H146.666Z" fill="#767575"/>
<path d="M212.916 33.7564L212.103 28.3646H211.675C211.675 28.3646 209.907 32.0653 209.479 32.9657L207.25 28.3646H206.799L205.987 33.7564C205.899 34.4811 205.668 34.4152 205.284 34.4152V34.7117H207.348V34.4152C206.942 34.4152 206.679 34.4152 206.733 33.8881L207.14 30.7585L209.083 34.7117H209.369L211.335 30.6267L211.752 33.8223C211.807 34.2945 211.873 34.4262 211.598 34.4262V34.7008H213.948V34.4262H213.674C213.212 34.4262 213.004 34.3384 212.916 33.7783V33.7564Z" fill="#767575"/>
<path d="M203.615 28.9136C204.175 28.9136 204.197 29.2211 204.197 29.6494H204.493V28.3536H200.397V28.6281H200.584C200.859 28.6281 201.21 28.716 201.21 29.1882V33.7564C201.21 34.3713 201.034 34.4043 200.65 34.4043H200.518V34.6898H204.702V33.2952H204.395C204.395 33.9101 204.142 34.1297 203.725 34.1297H202.418V31.5931H203.637C204.054 31.5931 204.065 31.7248 204.065 32.1641H204.362V30.44H204.065C204.065 30.8903 204.054 31.022 203.637 31.022H202.418V28.8917H203.615V28.9136Z" fill="#767575"/>
<path d="M195.774 34.4152V34.7008H198.574V34.4152H198.344C198.003 34.4152 197.685 34.3933 197.685 33.998V28.9246H198.937C199.497 28.9246 199.563 29.2321 199.618 29.6494H199.947L199.76 28.3536H194.402L194.215 29.6494H194.555C194.61 29.2321 194.687 28.9246 195.247 28.9246H196.499V34.0089C196.499 34.3713 196.345 34.4262 195.95 34.4262H195.796L195.774 34.4152Z" fill="#767575"/>
<path d="M185.627 28.6391H185.759V28.3536H183.387V28.6391C183.387 28.6391 183.717 28.6391 183.925 28.7379C184.079 28.8368 184.277 29.0454 184.463 29.309C184.749 29.7482 185.847 31.5491 185.902 31.6699C186.012 31.9115 186.089 32.0762 186.089 32.4935V33.8772C186.089 34.4043 185.803 34.4043 185.397 34.4043V34.6898H188.186V34.4043H187.977C187.593 34.4043 187.275 34.3713 187.275 33.8552V32.4935C187.275 32.241 187.275 31.9884 187.384 31.7029C187.527 31.3734 188.669 29.4407 188.944 29.1113C189.119 28.8917 189.185 28.8258 189.361 28.7269C189.471 28.6611 189.581 28.6281 189.69 28.6281H189.921V28.3426H187.824V28.6281H188.043C188.131 28.6281 188.164 28.694 188.164 28.7709C188.164 28.8697 188.131 28.9905 188.043 29.1662C187.988 29.287 186.868 31.2966 186.868 31.2966C186.868 31.2966 185.638 29.1662 185.54 28.9685C185.518 28.9246 185.441 28.7928 185.452 28.7269C185.452 28.6611 185.518 28.6391 185.507 28.6501C185.507 28.6501 185.54 28.6281 185.605 28.6281L185.627 28.6391Z" fill="#767575"/>
<path d="M193.402 29.8361H193.04C193.04 29.8361 193.084 29.4517 192.842 29.1333C192.721 28.9686 192.491 28.7599 192.008 28.7599C191.448 28.7599 191.096 29.0674 191.096 29.5286C191.096 29.8471 191.228 30.1216 191.942 30.6597L192.183 30.8354C193.194 31.626 193.556 32.1861 193.556 32.9767C193.556 33.3611 193.457 34.0309 192.743 34.4812C192.381 34.7118 191.931 34.8326 191.393 34.8326C190.898 34.8326 190.218 34.7337 189.976 34.4812V32.8889H190.294C190.294 32.8889 190.36 33.3721 190.404 33.5148C190.613 34.1737 191.184 34.2835 191.502 34.2835C192.172 34.2835 192.524 33.8443 192.524 33.427C192.524 33.0097 192.392 32.6583 191.744 32.1641L191.371 31.8676C190.492 31.1868 190.119 30.5938 190.119 29.8471C190.119 28.8917 190.92 28.2328 192.095 28.2328C193.073 28.2328 193.369 28.4744 193.369 28.4744V29.8361H193.402Z" fill="#767575"/>
<path d="M183.047 29.8361H182.684C182.684 29.8361 182.728 29.4518 182.498 29.1333C182.377 28.9686 182.135 28.76 181.652 28.76C181.103 28.76 180.741 29.0674 180.741 29.5287C180.741 29.8471 180.873 30.1217 181.586 30.6597L181.817 30.8354C182.838 31.6261 183.19 32.1861 183.19 32.9768C183.19 33.3611 183.091 34.031 182.388 34.4812C182.026 34.7118 181.586 34.8326 181.048 34.8326C180.554 34.8326 179.873 34.7338 179.621 34.4812V32.8889H179.95C179.95 32.8889 180.016 33.3721 180.06 33.5149C180.258 34.1737 180.829 34.2836 181.158 34.2836C181.817 34.2836 182.179 33.8443 182.179 33.427C182.179 33.0097 182.048 32.6583 181.4 32.1642L181.026 31.8677C180.148 31.1868 179.785 30.5938 179.785 29.8471C179.785 28.8917 180.576 28.2329 181.751 28.2329C182.728 28.2329 183.036 28.4745 183.036 28.4745V29.8361H183.047Z" fill="#767575"/>
<path d="M0 18.7231C0 29.0565 8.40068 37.4571 18.7231 37.4571C29.0455 37.4571 37.4571 29.0455 37.4571 18.7231C37.4571 8.40068 29.0565 0 18.7231 0C8.3897 0 0 8.40068 0 18.7231Z" fill="white"/>
<path d="M0.549072 18.734C0.549072 8.70807 8.70816 0.559959 18.7231 0.559959C28.738 0.559959 36.9081 8.70807 36.9081 18.734C36.9081 28.7599 28.76 36.919 18.7231 36.919C8.6862 36.919 0.549072 28.7489 0.549072 18.734Z" fill="#00387F"/>
<path d="M18.7229 31.9775C11.4094 31.9775 5.47949 26.0476 5.47949 18.7231C5.47949 11.3985 11.4094 5.47963 18.7229 5.47963C26.0365 5.47963 31.9663 11.4205 31.9663 18.7231C31.9663 26.0256 26.0365 31.9775 18.7229 31.9775Z" fill="white"/>
<path d="M3.40417 23.0386C3.40417 23.3241 3.6238 23.5548 3.92029 23.5548C4.21679 23.5548 4.42543 23.3351 4.42543 23.0386C4.42543 22.7421 4.20581 22.5225 3.92029 22.5225C3.63478 22.5225 3.40417 22.7531 3.40417 23.0386Z" fill="white"/>
<path d="M33.7234 23.6207C34.0084 23.6207 34.2395 23.3896 34.2395 23.1046C34.2395 22.8195 34.0084 22.5884 33.7234 22.5884C33.4383 22.5884 33.2073 22.8195 33.2073 23.1046C33.2073 23.3896 33.4383 23.6207 33.7234 23.6207Z" fill="white"/>
<path d="M4.13977 12.6395C3.77738 12.5187 3.44795 12.5406 3.16243 12.6834C2.84398 12.8481 2.61337 13.1666 2.48159 13.5729C2.34982 13.9902 2.37178 14.3635 2.5365 14.682C2.70122 15.0004 2.99771 15.242 3.34911 15.3518C3.97505 15.5495 4.78766 15.3519 5.07318 14.4294C5.20495 14.0341 5.17201 13.6498 5.00729 13.3093C4.83159 12.9909 4.53509 12.7383 4.16173 12.6285L4.13977 12.6395ZM4.88649 14.2318C4.69981 14.8138 4.08486 15.0554 3.39304 14.8357C2.52552 14.5612 2.55846 14.0341 2.64631 13.7376C2.72318 13.507 2.87692 13.3203 3.08556 13.2215C3.3601 13.0787 3.72248 13.0568 4.09584 13.1776C4.48019 13.2984 4.72178 13.485 4.84257 13.7047C4.95238 13.9243 4.90846 14.1329 4.88649 14.2318Z" fill="white"/>
<path d="M7.73038 9.31208L7.25818 8.86185L7.34603 8.76302C7.34603 8.76302 7.51075 8.87283 7.56566 8.90578C7.81823 9.03755 8.01589 8.90578 8.11472 8.79596C8.30141 8.58732 8.27944 8.35671 8.15865 8.23592C8.03786 8.12611 7.8951 8.06022 7.55468 8.10414L7.35702 8.13709C6.8958 8.20298 6.61029 8.13709 6.40164 7.93942C6.10515 7.66489 6.13809 7.23662 6.47851 6.88522C6.76403 6.58873 6.91776 6.56676 6.91776 6.56676L7.32407 6.96209L7.22524 7.06092C7.22524 7.06092 7.12641 6.92915 6.95071 6.92915C6.86286 6.92915 6.73108 6.92915 6.59931 7.06092C6.44557 7.22564 6.43459 7.4233 6.57734 7.55508C6.67618 7.64293 6.78599 7.67587 7.15935 7.62097C7.15935 7.62097 7.26917 7.60999 7.26917 7.59901C7.79627 7.52214 8.0708 7.57704 8.31239 7.80765C8.4222 7.91746 8.5979 8.13709 8.53201 8.47751C8.49907 8.65321 8.40024 8.81793 8.2465 8.98265C8.11472 9.1254 7.88412 9.31208 7.73038 9.31208Z" fill="white"/>
<path d="M30.1873 9.91611L30.7254 9.54274L30.8022 9.66354C30.8022 9.66354 30.6595 9.79531 30.6156 9.85022C30.4289 10.0698 30.5277 10.2895 30.6156 10.3993C30.7693 10.6299 30.9999 10.6519 31.1427 10.542C31.2854 10.4542 31.3733 10.3224 31.3952 9.98199V9.78433C31.4392 9.32312 31.56 9.05957 31.8015 8.88387C32.131 8.66424 32.5483 8.78503 32.8228 9.18036C33.0424 9.52078 33.0424 9.67452 33.0424 9.67452L32.5702 9.99297L32.4824 9.8612C32.4824 9.8612 32.6251 9.79531 32.68 9.63059C32.702 9.54274 32.724 9.42195 32.6142 9.25723C32.4824 9.07055 32.2957 9.02662 32.142 9.13643C32.0322 9.2133 31.9663 9.31213 31.9553 9.6855V9.80629C31.9114 10.3444 31.8125 10.5969 31.538 10.7836C31.4172 10.8715 31.1536 10.9923 30.8352 10.8495C30.6705 10.7836 30.5277 10.6519 30.4069 10.4652C30.2861 10.3004 30.1653 10.0369 30.1873 9.89414V9.91611Z" fill="white"/>
<path d="M9.72924 5.88598C9.872 5.78715 9.90494 5.8201 10.0148 5.97383L10.1136 5.89697L9.6963 5.32594L9.59746 5.39183C9.70728 5.53458 9.74022 5.58949 9.59746 5.68832L9.19116 5.9958L8.66405 5.28201C8.66405 5.28201 8.97153 5.05141 9.05938 4.98552C9.24606 4.85374 9.33391 4.94159 9.43274 5.08435L9.53158 5.00748L9.21312 4.57921L7.85144 5.60047L7.92831 5.6993C8.01616 5.63342 8.19186 5.49066 8.33462 5.67734C8.47737 5.875 9.46569 7.19276 9.46569 7.19276C9.63041 7.42336 9.55354 7.45631 9.38882 7.5771L9.46569 7.68691L10.8493 6.64369L10.4979 6.1715L10.3991 6.23739C10.5528 6.44603 10.5199 6.57781 10.3881 6.68762C10.3003 6.75351 9.94887 7.01706 9.94887 7.01706L9.32293 6.1715L9.72924 5.875V5.88598Z" fill="white"/>
<path d="M27.7935 6.02874C27.9362 6.12757 27.9033 6.18247 27.7935 6.32523L27.9033 6.39112L28.2986 5.79813L28.1998 5.73224C28.101 5.88598 28.057 5.9299 27.9253 5.83107L27.508 5.55654L28.0021 4.8208C28.0021 4.8208 28.3316 5.04042 28.4084 5.09533C28.6061 5.2271 28.5402 5.33692 28.4414 5.47967L28.5512 5.55654L28.8477 5.10631L27.4421 4.16192L27.3652 4.26075C27.4641 4.32664 27.6617 4.43645 27.519 4.63411C27.3872 4.83178 26.4648 6.21542 26.4648 6.21542C26.311 6.44602 26.2451 6.38014 26.0804 6.25934L26.0145 6.38014L27.4531 7.33551L27.7825 6.85233L27.6837 6.78644C27.5409 6.99509 27.3982 7.01705 27.2554 6.91822C27.1566 6.85233 26.8052 6.62173 26.8052 6.62173L27.3872 5.74322L27.8045 6.01776L27.7935 6.02874Z" fill="white"/>
<path d="M11.1897 3.83245C11.1128 3.67871 11.1897 3.63479 11.3764 3.54694L11.3215 3.43713L10.3661 3.93128L10.421 4.0411C10.421 4.0411 10.6626 3.8654 10.7614 4.05208C10.8053 4.15091 11.6948 5.87497 11.6948 5.87497C11.7717 6.01773 11.6948 6.07263 11.5191 6.17146L11.574 6.2703L12.6063 5.74319L12.5514 5.63338C12.3976 5.71025 12.2329 5.82006 12.1451 5.63338C12.0572 5.45768 11.2116 3.82147 11.2116 3.82147L11.1897 3.83245Z" fill="white"/>
<path d="M16.7353 3.19552L16.5267 2.15229C16.4938 1.98757 16.5706 1.96561 16.7793 1.93267L16.7573 1.81187L15.8349 1.99856L15.8568 2.11935C15.8568 2.11935 16.1424 2.02052 16.1863 2.24014C16.1863 2.28407 16.4059 3.34925 16.4059 3.34925C16.4718 3.71164 16.5157 3.99715 16.3839 4.20579C16.2522 4.39247 16.0545 4.45836 15.9667 4.46934C15.8459 4.49131 15.7031 4.50229 15.5384 4.41444C15.3846 4.33757 15.2309 4.19481 15.1211 3.65673L14.8905 2.5037C14.8575 2.33898 14.9344 2.31701 15.1431 2.27309L15.1211 2.15229L14.0669 2.36094L14.0889 2.48173C14.0889 2.48173 14.3744 2.3829 14.4183 2.59155C14.4183 2.64645 14.6599 3.77752 14.6599 3.77752C14.7477 4.21677 14.9015 4.48033 15.1431 4.62308C15.4505 4.80976 15.8019 4.73289 15.9557 4.71093C16.1533 4.66701 16.4059 4.59014 16.6146 4.32659C16.8561 4.01911 16.8122 3.6128 16.7353 3.22846V3.19552Z" fill="white"/>
<path d="M22.8517 2.54765C22.8846 2.37195 22.9725 2.39392 23.1702 2.44882L23.2031 2.32803L22.1489 2.08644L22.116 2.20724C22.116 2.20724 22.4124 2.2292 22.3685 2.44882C22.3466 2.54765 21.9073 4.43643 21.9073 4.43643C21.8634 4.60115 21.7755 4.59017 21.5779 4.54625L21.5559 4.66704L22.687 4.91961L22.7089 4.8098C22.5442 4.76587 22.3356 4.74391 22.3795 4.54625C22.4234 4.34858 22.8407 2.55864 22.8407 2.55864L22.8517 2.54765Z" fill="white"/>
<path d="M33.8442 11.6511C33.9979 11.5852 34.0419 11.6511 34.1297 11.8268L34.2395 11.7829L33.7673 10.8165L33.6575 10.8714C33.6575 10.8714 33.8332 11.113 33.6246 11.2119C33.5258 11.2558 31.7907 12.1123 31.7907 12.1123C31.637 12.1892 31.604 12.1123 31.5052 11.9256L31.3954 11.9696L31.9115 13.0128L32.0213 12.9689C31.9444 12.8151 31.8346 12.6394 32.0103 12.5516C32.197 12.4637 33.8442 11.6511 33.8442 11.6511Z" fill="white"/>
<path d="M34.7225 12.903L34.1845 12.9799L34.2284 13.1226C34.4041 13.0897 34.5359 13.0787 34.6018 13.3093C34.6127 13.3532 34.6457 13.4301 34.7445 13.8035C34.448 13.8913 32.724 14.3964 32.724 14.3964C32.5592 14.4513 32.5373 14.3745 32.4824 14.1658L32.3616 14.1988L32.691 15.3079L32.8008 15.2749C32.7569 15.1102 32.669 14.9235 32.8667 14.8686C33.0534 14.8137 34.6347 14.3525 34.8873 14.2756C35.0081 14.649 35.03 14.7259 35.041 14.7698C35.1069 14.9894 34.9971 15.0553 34.8324 15.1322L34.8763 15.264L35.3704 15.0443L34.7445 12.914L34.7225 12.903Z" fill="white"/>
<path d="M31.0218 7.2147C30.9779 6.9841 30.8242 6.8084 30.6704 6.65466L29.9457 5.94088L29.8578 6.02873C29.8578 6.02873 30.0994 6.20443 29.9457 6.36915C29.8688 6.44602 28.5071 7.81868 28.5071 7.81868C28.3863 7.93947 28.3205 7.88456 28.1777 7.73082L28.0898 7.81868L28.9244 8.63129L29.0013 8.54344C28.8805 8.42265 28.7158 8.30185 28.8585 8.14811L29.4076 7.59905L29.6272 7.81868L29.5284 8.40068C29.4735 8.7411 29.4625 8.94975 29.5064 9.10349C29.5394 9.2133 29.5943 9.29017 29.7261 9.42194L29.9786 9.66353L30.0555 9.58666L30.0006 9.50979C30.0006 9.50979 29.8908 9.35605 29.9018 9.0925C29.9018 8.83993 29.9347 8.52148 29.9896 8.12615C29.9896 8.12615 30.0006 7.99438 30.0116 7.95045C30.4069 7.98339 30.6704 7.91751 30.8681 7.70886C31.0548 7.53316 31.0548 7.30256 31.0328 7.19274L31.0218 7.2147ZM30.4069 7.53316C30.1873 7.75279 30.0116 7.76377 29.9237 7.75279C29.8578 7.74181 29.8139 7.71984 29.7261 7.62101L29.5504 7.44531L30.352 6.6327L30.4728 6.75349C30.6046 6.88527 30.7363 7.19274 30.4069 7.52218V7.53316Z" fill="white"/>
<path d="M3.53565 17.032C3.42583 17.021 3.327 17.01 3.21719 16.9551C3.07443 16.8892 2.32771 16.3402 2.20691 16.2084C2.11906 16.1315 2.08612 16.0876 2.06415 16.0217C2.04219 15.9668 2.04219 15.9229 2.04219 15.8789C2.04219 15.846 2.04219 15.7801 2.04219 15.7801H1.9214L1.84453 16.6367H1.9763C1.9763 16.6367 1.9763 16.5817 1.9763 16.5598C1.9763 16.5268 2.00925 16.5159 2.04219 16.5159C2.08612 16.5159 2.14102 16.5378 2.19593 16.5708C2.25084 16.5927 3.03051 17.1308 3.03051 17.1308C3.03051 17.1308 2.0971 17.5591 2.02023 17.592C1.99827 17.592 1.94336 17.625 1.91042 17.625C1.89944 17.625 1.88845 17.614 1.88845 17.592V17.4932H1.76766L1.67981 18.4595H1.8006C1.8006 18.4595 1.81159 18.3388 1.86649 18.2509C1.91042 18.196 2.00925 18.1191 2.13004 18.0532C2.31672 17.9544 3.10738 17.5701 3.1513 17.5481C3.25013 17.5152 3.327 17.4932 3.5027 17.5042C3.5027 17.5042 3.8541 17.5371 4.07373 17.5591C4.29335 17.581 4.28237 17.6909 4.27139 17.8666H4.38121L4.49102 16.7245H4.38121C4.37022 16.9002 4.37022 17.0869 4.11765 17.0649C3.86508 17.043 3.54663 17.021 3.54663 17.021L3.53565 17.032Z" fill="white"/>
<path d="M33.9429 17.5591C34.0527 17.5591 34.1515 17.5371 34.2723 17.581C34.4151 17.625 35.2607 18.0203 35.4034 18.1191C35.5022 18.174 35.5462 18.207 35.5791 18.2729C35.6121 18.3168 35.623 18.3717 35.634 18.4046C35.634 18.4376 35.634 18.5035 35.634 18.5035H35.7548L35.6779 17.625H35.5571C35.5571 17.625 35.5571 17.7018 35.5571 17.7238C35.5571 17.7458 35.5352 17.7787 35.5022 17.7787C35.4583 17.7787 35.4034 17.7787 35.3375 17.7458C35.2826 17.7238 34.4151 17.3504 34.4151 17.3504C34.4151 17.3504 35.2387 16.7574 35.3156 16.7135C35.3375 16.7025 35.3924 16.6696 35.4144 16.6696C35.4254 16.6696 35.4473 16.6696 35.4473 16.6916L35.4583 16.7794H35.5791L35.4803 15.7911H35.3595C35.3595 15.7911 35.3705 15.9448 35.3375 16.0327C35.3046 16.0986 35.2277 16.1864 35.1289 16.2743C34.9532 16.406 34.2614 16.9441 34.2174 16.9661C34.1296 17.021 34.0527 17.0649 33.877 17.0759C33.877 17.0759 33.5256 17.1088 33.306 17.1308C33.0864 17.1528 33.0644 17.032 33.0534 16.8673H32.9326L33.0424 18.0203H33.1522C33.1303 17.8116 33.0973 17.6359 33.3499 17.614C33.6025 17.592 33.9209 17.5591 33.9209 17.5591H33.9429Z" fill="white"/>
<path d="M7.07166 10.2565L6.97283 10.4102L4.43615 10.9813L5.67703 11.7499C5.94059 11.9037 6.02844 11.706 6.11629 11.5633L6.2261 11.6291L5.70998 12.4527L5.60017 12.3869C5.67703 12.2551 5.77587 12.1343 5.53428 11.9696C5.28171 11.8268 3.62354 10.8056 3.62354 10.8056L3.71139 10.6738C4.13966 10.5749 6.20414 10.1137 6.281 10.1027C6.281 10.1027 5.2268 9.45485 4.9962 9.3121C4.77657 9.16934 4.66676 9.35602 4.60087 9.47682L4.49106 9.41093L4.96325 8.65322L5.06208 8.71911C4.98521 8.8399 4.89736 8.94972 5.12797 9.09247C5.35858 9.23523 7.04969 10.2785 7.04969 10.2785L7.07166 10.2565Z" fill="white"/>
<path d="M20.4029 4.46938H20.2272L18.5251 2.50373L18.4372 3.94227C18.4153 4.24975 18.6349 4.23877 18.8106 4.23877V4.35956L17.8223 4.30466V4.17288C17.987 4.18386 18.1407 4.20582 18.1517 3.92031C18.1737 3.62382 18.2945 1.68013 18.2945 1.68013H18.4592C18.7447 2.03153 20.1283 3.6348 20.1723 3.6897C20.1723 3.6897 20.2491 2.4598 20.2601 2.18527C20.2821 1.92172 20.0624 1.92172 19.9307 1.91074V1.78994L20.8311 1.84485V1.97662C20.6774 1.96564 20.5456 1.94368 20.5237 2.21821C20.5127 2.48176 20.3919 4.46938 20.3919 4.46938H20.4029Z" fill="white"/>
<path d="M26.6952 3.82147L26.7282 3.68969L25.9485 3.34927L25.9046 3.47007L25.9924 3.51399C25.9924 3.51399 26.0473 3.55792 26.0364 3.59086C26.0254 3.63479 25.9814 3.67871 25.9375 3.73362L25.2128 4.46936C25.2128 4.46936 24.7955 4.87567 24.7406 4.94156C24.7406 4.87567 24.7845 3.93128 24.8065 3.52497L24.8284 3.16259C24.8284 3.16259 24.8284 3.0967 24.8504 3.07474C24.8504 3.06376 24.8943 3.0418 24.9382 3.06376L25.0261 3.10768L25.081 2.98689L24.1695 2.59156L24.1256 2.70138C24.1256 2.70138 24.2574 2.75628 24.3013 2.82217C24.3343 2.88806 24.3562 2.98689 24.3452 3.10768L24.3013 5.55651L24.4001 5.61142L25.7948 4.32661L26.2889 3.87637C26.2889 3.87637 26.4536 3.73362 26.6184 3.79951L26.7062 3.84343L26.6952 3.82147Z" fill="white"/>
<path d="M19.5795 33.0206V33.8223H19.3708V33.0206H18.8218V33.0646C18.8767 33.0646 18.9316 33.1744 18.9316 33.2732V35.0083H17.8005V33.4489H18.5472V33.0865H17.2185V33.1414C17.2734 33.1414 17.3283 33.2293 17.3283 33.3391V35.3816H18.9316V35.9526C18.9316 35.9526 19.3379 35.9526 19.3708 35.9526V34.1847H19.5795V35.9526H20.0517V33.0097H19.5795V33.0206Z" fill="white"/>
<path d="M32.3178 28.5732C31.9445 28.2657 30.5279 27.0907 30.5059 27.0688C30.5059 27.0688 29.0454 28.8258 29.0234 28.8477C29.0454 28.8697 29.287 29.0674 29.309 29.0783C29.3309 29.0564 30.4839 27.6508 30.4839 27.6508C30.4839 27.6508 31.6699 28.6391 32.0213 28.9246C31.8896 29.0893 31.7907 29.2101 31.7907 29.2101C31.7907 29.2101 31.022 28.5622 31.0001 28.5512C30.9781 28.5842 30.7255 28.8807 30.7146 28.9026C30.7365 28.9246 31.5162 29.5615 31.5162 29.5615L31.3624 29.7482C31.3624 29.7482 30.5828 29.1113 30.5608 29.0893C30.5389 29.1223 30.2424 29.4737 30.2204 29.4956C30.2314 29.4956 30.2533 29.5176 30.2753 29.5396C30.2753 29.5396 30.4181 29.5176 30.4949 29.5725L31.0879 30.0667C31.0879 30.0667 30.7695 30.451 30.7475 30.473C30.7695 30.4949 31.011 30.6926 31.022 30.7036C31.044 30.6816 32.7681 28.6062 32.79 28.5842C32.7681 28.5732 32.5265 28.3646 32.5045 28.3536C32.5045 28.3536 32.4167 28.4524 32.3288 28.5732H32.3178Z" fill="white"/>
<path d="M13.1556 31.9115C13.1556 31.9115 11.9366 34.558 11.9257 34.591C11.9586 34.591 12.332 34.7776 12.3539 34.7886C12.3539 34.7557 13.5729 32.1421 13.5838 32.1092C13.5838 32.1092 13.1885 31.9225 13.1665 31.9115H13.1556Z" fill="white"/>
<path d="M12.4967 31.604C12.4967 31.604 12.4747 31.648 12.4637 31.6589C12.4637 31.6589 12.5186 31.7907 12.4747 31.8786L12.2551 32.3727C12.2551 32.3727 11.8378 32.186 11.8049 32.1641C11.7939 32.186 11.6731 32.4715 11.6511 32.4935C11.6731 32.5045 12.1013 32.7022 12.1013 32.7022C12.1013 32.7022 11.3766 34.2835 11.3656 34.3164C11.3876 34.3164 11.717 34.4811 11.739 34.4921C11.7499 34.4701 12.9469 31.8456 12.9689 31.8237C12.9689 31.8237 12.5186 31.615 12.4967 31.604Z" fill="white"/>
<path d="M11.2668 32.4277V32.4057C11.5962 32.1531 11.8378 31.8567 12.0135 31.4723C12.0135 31.4723 11.4205 31.1978 11.3986 31.1868C11.3986 31.1978 11.3766 31.2307 11.3766 31.2417C11.3766 31.2417 11.4974 31.3405 11.3986 31.5602C11.3986 31.5602 11.0581 32.2959 10.0588 32.6253C10.0698 32.6583 10.1687 32.8889 10.1687 32.9109C10.1687 32.9109 10.4981 32.8669 10.9593 32.6144H10.9703C11.0472 32.7571 11.146 32.9658 11.2338 33.5038C11.2778 33.4819 11.6072 33.2952 11.6292 33.2842C11.5743 33.0536 11.4535 32.7681 11.2778 32.4387L11.2668 32.4277Z" fill="white"/>
<path d="M24.8176 34.2066L26.5965 33.3501C26.5965 33.3501 26.8601 33.8991 26.871 33.9321C26.904 33.9321 27.2664 33.7454 27.2993 33.7234C27.2993 33.7015 26.882 32.8449 26.8601 32.812C26.8271 32.834 24.6858 33.8552 24.6528 33.8662C24.6638 33.8882 24.7956 34.1847 24.8176 34.2066Z" fill="white"/>
<path d="M26.0254 31.066C26.0254 31.066 25.5312 31.3076 25.4983 31.3185C25.4983 31.3405 25.5203 31.3625 25.5203 31.3844C25.5203 31.3844 25.663 31.4174 25.696 31.5162C25.696 31.5162 26.2999 32.7791 26.3109 32.801C26.3329 32.801 26.7062 32.6143 26.7392 32.5924C26.7282 32.5704 26.5086 32.1092 26.5086 32.1092C26.5086 32.1092 26.8929 31.9115 26.9259 31.9115C26.9259 31.8896 26.7941 31.637 26.7831 31.615C26.7502 31.626 26.3658 31.8127 26.3658 31.8127C26.3658 31.8127 26.0254 31.0989 26.0144 31.066H26.0254Z" fill="white"/>
<path d="M24.0928 33.0975C24.2685 33.4599 24.7517 33.6026 25.169 33.405C25.5863 33.2073 25.7839 32.7461 25.6082 32.3727C25.5204 32.1861 25.3447 32.0543 25.147 32.0104C25.3337 31.9225 25.4655 31.8566 25.4655 31.8566C25.4545 31.8347 25.3227 31.5492 25.3117 31.5162C25.2788 31.5382 24.7187 31.8127 24.7187 31.8127C24.7187 31.8127 24.6199 31.615 24.6089 31.5821C24.6089 31.5821 24.1148 31.8237 24.0818 31.8347C24.0818 31.8456 24.1038 31.8786 24.1148 31.8896C24.1148 31.8896 24.2356 31.9115 24.2795 31.9994C24.2795 31.9994 23.6755 32.3069 23.6426 32.3178C23.6536 32.3508 23.7853 32.6253 23.7963 32.6473C23.7963 32.6473 23.9171 32.5924 24.0818 32.5155C23.994 32.7022 23.994 32.9218 24.0818 33.1085L24.0928 33.0975ZM25.0372 33.1195C24.8286 33.2183 24.587 33.1195 24.4772 32.9108C24.3783 32.7022 24.4552 32.4386 24.6638 32.3508C24.8725 32.252 25.1141 32.3508 25.2239 32.5484C25.3227 32.7681 25.2349 33.0206 25.0372 33.1195Z" fill="white"/>
<path d="M5.99586 28.7819C5.99586 28.7819 5.63348 28.3646 5.61152 28.3426C5.60054 28.3536 5.57857 28.3756 5.56759 28.3865C5.56759 28.3865 5.56759 28.5293 5.49072 28.5952C5.49072 28.5952 4.98559 29.0344 4.96362 29.0564C4.98559 29.0784 6.42413 30.7365 6.4461 30.7585C6.46806 30.7365 6.70965 30.5389 6.72063 30.5169C6.69867 30.495 5.54563 29.1662 5.54563 29.1662C5.54563 29.1662 5.96292 28.7929 5.98488 28.7819H5.99586Z" fill="white"/>
<path d="M6.88508 28.8807C7.01685 29.0345 7.2804 29.331 7.2804 29.331C7.2804 29.331 6.73134 29.8251 6.69839 29.8361C6.72036 29.8581 6.99489 30.1765 7.01685 30.1875C7.03881 30.1765 8.59816 28.8148 8.62012 28.7819C8.59816 28.7599 8.26872 28.3756 8.24676 28.3536C8.23577 28.3536 8.20283 28.3866 8.19185 28.3975C8.19185 28.3975 8.19185 28.5403 8.11498 28.6062L8.03811 28.6831C8.03811 28.6831 7.67573 28.2767 7.59886 28.1779C7.62082 27.9363 7.54395 27.6838 7.37923 27.4861C7.0498 27.1237 6.52269 27.0578 6.18228 27.3543C5.84186 27.6508 5.81989 28.1889 6.14933 28.5623C6.34699 28.7929 6.63251 28.9027 6.89606 28.8807H6.88508ZM7.7526 28.9246L7.55493 29.1003C7.55493 29.1003 7.39022 28.9027 7.25844 28.7489C7.2804 28.7489 7.31335 28.716 7.32433 28.694C7.36825 28.6611 7.4012 28.6172 7.43414 28.5732C7.56592 28.727 7.74162 28.9246 7.74162 28.9246H7.7526ZM6.45681 27.6838C6.65447 27.519 6.93998 27.53 7.1047 27.7057C7.25844 27.8814 7.23648 28.1779 7.02783 28.3426C6.83017 28.5183 6.54466 28.5074 6.37994 28.3207C6.21522 28.134 6.24816 27.8485 6.44583 27.6728L6.45681 27.6838Z" fill="white"/>
<path d="M18.7229 12.3649C17.6467 12.3649 16.7792 13.2324 16.7792 14.3195C16.7792 15.4067 17.6467 16.2632 18.7229 16.2632C19.799 16.2632 20.6665 15.3957 20.6665 14.3195C20.6665 13.2434 19.788 12.3649 18.7229 12.3649Z" fill="#00387F"/>
<path d="M14.0231 28.2877C15.242 29.3419 16.7794 30.3632 18.7231 31.2527C20.6667 30.3522 22.2041 29.3419 23.423 28.2877L18.7231 23.5768L14.0231 28.2877Z" fill="#00387F"/>
<path d="M28.2987 17.0649V10.5749C28.2987 10.5749 22.7532 10.7506 18.7231 7.65392C14.6929 10.7616 9.15837 10.5749 9.15837 10.5749V17.0649C9.15837 17.0649 9.12543 18.4595 9.36702 19.9859C12.3979 19.4259 15.5275 19.1403 18.734 19.1403C21.9406 19.1403 25.0702 19.4368 28.1011 19.9859C28.3427 18.4595 28.3097 17.0649 28.3097 17.0649H28.2987ZM18.7231 18.1191C16.6147 18.1191 14.9126 16.417 14.9126 14.3196C14.9126 12.2221 16.6147 10.5091 18.7231 10.5091C20.8315 10.5091 22.5336 12.2112 22.5336 14.3196C22.5336 16.428 20.8315 18.1191 18.7231 18.1191Z" fill="#00387F"/>
<path d="M9.46558 20.535C9.5095 20.7326 9.55343 20.9303 9.60833 21.1389C10.0586 22.863 10.8602 24.8396 12.4964 26.7504L18.7338 20.502L24.9711 26.7504C26.6183 24.8396 27.42 22.852 27.8592 21.1389C27.9141 20.9413 27.9581 20.7436 28.002 20.535C25.0041 19.9749 21.8964 19.6894 18.7338 19.6894C15.5712 19.6894 12.4635 19.9749 9.47656 20.535H9.46558Z" fill="#00387F"/>
<path d="M12.222 15.8349H13.1115C13.1115 15.8349 13.1664 15.813 13.1664 15.78V13.9461C13.1664 13.9461 13.1444 13.8912 13.1115 13.8912H12.3867C12.2659 13.8912 12.1671 13.9901 12.1671 14.1109V15.78C12.1671 15.78 12.1891 15.8349 12.222 15.8349Z" fill="white"/>
<path d="M10.992 15.8349H11.8925C11.8925 15.8349 11.9474 15.813 11.9474 15.78V14.1109C11.9474 13.9901 11.8486 13.8912 11.7278 13.8912H11.003C11.003 13.8912 10.9481 13.9242 10.9481 13.9461V15.78C10.9481 15.78 10.9701 15.8349 11.003 15.8349H10.992Z" fill="white"/>
<path d="M13.5948 14.2097H13.4081V16.0326H12.277V16.0546C12.277 16.1644 12.1672 16.2522 12.0574 16.2522C11.9476 16.2522 11.8487 16.1644 11.8377 16.0546V16.0326H10.7067V14.2097H10.52C10.52 14.2097 10.4651 14.2317 10.4651 14.2646V16.1973C10.4651 16.1973 10.4871 16.2522 10.52 16.2522H11.6511C11.7279 16.384 11.8817 16.4938 12.0574 16.4938C12.2331 16.4938 12.3868 16.384 12.4637 16.2522H13.5948C13.5948 16.2522 13.6497 16.2193 13.6497 16.1973V14.2646C13.6497 14.2646 13.6277 14.2097 13.5948 14.2097Z" fill="white"/>
<path d="M25.6742 15.6372H24.9275C24.9275 15.6372 24.8616 15.6702 24.8616 15.7031L25.1032 17.2405C25.1032 17.3064 25.169 17.3613 25.2349 17.3613H25.3557C25.4216 17.3613 25.4765 17.3064 25.4875 17.2405L25.7291 15.7031C25.7291 15.7031 25.7071 15.6372 25.6632 15.6372H25.6742Z" fill="white"/>
<path d="M25.784 14.9564C25.9706 14.7917 26.4209 14.3085 26.3769 14.034C26.322 13.7375 25.4984 13.3202 25.4435 12.9908C25.4216 12.848 25.4765 12.6504 25.5533 12.4856C25.5643 12.4527 25.5314 12.4527 25.5094 12.4856C25.4984 12.4856 24.8176 12.9908 24.8176 13.3532C24.8176 13.4959 24.9164 13.6387 25.0811 13.7814C25.2129 13.8912 25.3886 13.9901 25.5314 14.1218C25.5973 14.1877 25.6522 14.2426 25.6851 14.3415C25.751 14.5282 25.5643 14.8247 25.4435 14.9564H25.18C25.2898 14.8356 25.3996 14.6489 25.4435 14.4842C25.5533 14.0669 24.5211 13.9681 24.6748 13.3312C24.6748 13.3312 24.6529 13.2983 24.6309 13.3202C24.6309 13.3202 24.2246 13.7265 24.2246 14.0011C24.2246 14.2317 24.6968 14.4513 24.9164 14.7697C24.9494 14.8356 24.9494 14.9125 24.9164 14.9674H24.4882C24.4882 14.9674 24.3893 14.9564 24.4333 15.0553L24.5431 15.4067C24.5431 15.4067 24.565 15.4616 24.6309 15.4616H26.0036C26.0695 15.4616 26.0914 15.4067 26.0914 15.4067L26.2122 15.0443C26.2452 14.9564 26.1463 14.9564 26.1463 14.9564H25.8059H25.784Z" fill="white"/>
<path d="M16.867 27.2333C16.8011 27.2882 16.4497 27.5188 16.4387 27.5188C16.4167 27.5188 16.4058 27.5518 16.4058 27.5628C16.4058 27.5957 16.4277 27.6177 16.4497 27.6177H16.4826L16.5375 27.5847C16.5815 27.5628 16.6693 27.5188 16.6803 27.5188V27.5628V28.5291C16.6693 28.584 16.6583 28.595 16.6144 28.606H16.4716C16.4716 28.606 16.4277 28.6389 16.4277 28.6719C16.4277 28.6938 16.4277 28.7158 16.4826 28.7158H16.7132H16.8011H17.1086C17.1086 28.7158 17.1635 28.7048 17.1635 28.6828C17.1635 28.6499 17.1415 28.6389 17.1305 28.6389H17.0097C17.0097 28.6389 16.9658 28.606 16.9548 28.5511V28.1228V27.7824V27.3212V27.2992C16.9548 27.2443 16.9219 27.2333 16.9109 27.2333L16.845 27.2663L16.867 27.2333Z" fill="white"/>
<path d="M17.6907 28.3316C17.6907 28.1559 17.8005 28.0461 17.8774 28.0022C18.0311 28.09 18.1738 28.1779 18.1738 28.3426C18.1738 28.4963 18.075 28.6061 17.9432 28.6061C17.8115 28.6061 17.7017 28.4853 17.7017 28.3316H17.6907ZM17.493 27.5849C17.493 27.7606 17.6248 27.8704 17.7346 27.9253C17.5369 28.0241 17.4161 28.1669 17.4161 28.3426C17.4161 28.5842 17.6138 28.7489 17.9103 28.7489C18.2617 28.7489 18.4374 28.5183 18.4374 28.2987C18.4374 28.079 18.2617 27.9473 18.1299 27.8704C18.2178 27.8375 18.3825 27.7276 18.3825 27.53C18.3825 27.3323 18.2178 27.2115 17.9652 27.2115C17.6138 27.2115 17.493 27.4311 17.493 27.5739V27.5849ZM17.7456 27.5519C17.7456 27.4641 17.8005 27.3543 17.9432 27.3543C18.0311 27.3543 18.1189 27.4092 18.1189 27.5519C18.1189 27.7057 18.0421 27.7716 17.9652 27.8045C17.8005 27.7167 17.7456 27.6398 17.7456 27.5519Z" fill="white"/>
<path d="M18.9862 28.3316C18.9862 28.1559 19.107 28.0461 19.1839 28.0022C19.3376 28.09 19.4694 28.1779 19.4694 28.3426C19.4694 28.4963 19.3706 28.6061 19.2278 28.6061C19.085 28.6061 18.9752 28.4853 18.9752 28.3316H18.9862ZM18.7995 27.5849C18.7995 27.7606 18.9313 27.8704 19.0411 27.9253C18.8435 28.0241 18.7227 28.1669 18.7227 28.3426C18.7227 28.5842 18.9203 28.7489 19.2168 28.7489C19.5682 28.7489 19.7439 28.5183 19.7439 28.2987C19.7439 28.079 19.5572 27.9473 19.4255 27.8704C19.5133 27.8375 19.667 27.7276 19.667 27.53C19.667 27.3323 19.5023 27.2115 19.2607 27.2115C18.9093 27.2115 18.7885 27.4311 18.7885 27.5739L18.7995 27.5849ZM19.0411 27.5519C19.0411 27.4641 19.096 27.3543 19.2388 27.3543C19.3376 27.3543 19.4255 27.4092 19.4255 27.5519C19.4255 27.7057 19.3376 27.7716 19.2717 27.8045C19.107 27.7167 19.0411 27.6398 19.0411 27.5519Z" fill="white"/>
<path d="M20.7983 27.2335H20.6775H20.2163C20.1724 27.2335 20.1614 27.2664 20.1614 27.2774L20.1175 27.7716C20.1175 27.7716 20.1175 27.8375 20.1724 27.8375C20.2932 27.8484 20.6226 27.9692 20.6226 28.2547C20.6226 28.4853 20.4689 28.5732 20.3371 28.5732C20.1834 28.5732 20.1065 28.4963 20.1065 28.3426C20.1065 28.2877 20.0846 28.2877 20.0626 28.2877C20.0297 28.2877 20.0077 28.3316 20.0077 28.3426V28.5622V28.5952C20.0077 28.6281 20.0077 28.672 20.0516 28.694C20.0516 28.694 20.1724 28.7379 20.2383 28.7379C20.6775 28.7379 20.8862 28.4414 20.8862 28.1779C20.8862 27.8594 20.5677 27.6837 20.2603 27.6288C20.2603 27.5849 20.2712 27.4751 20.2822 27.4421H20.6007C20.7325 27.4421 20.7325 27.4861 20.7325 27.519C20.7325 27.5629 20.7654 27.5739 20.7654 27.5739C20.7983 27.5739 20.8093 27.5519 20.8203 27.53L20.8532 27.2774C20.8532 27.2774 20.8533 27.2115 20.8093 27.2115H20.7874L20.7983 27.2335Z" fill="white"/>
<path d="M12.4858 26.7502C12.9361 27.2664 13.4412 27.7825 14.0122 28.2876L18.7122 23.5766L23.4122 28.2876C23.9942 27.7825 24.4994 27.2664 24.9496 26.7502L18.7122 20.5019L12.4749 26.7502H12.4858Z" fill="white"/>
<path d="M18.7229 19.1402C15.5163 19.1402 12.3867 19.4367 9.35583 19.9858C9.38878 20.1725 9.42172 20.3482 9.45467 20.5348C12.4526 19.9748 15.5383 19.6893 18.7119 19.6893C21.8855 19.6893 24.9822 19.9748 27.9801 20.5348C28.013 20.3482 28.046 20.1725 28.0789 19.9858C25.0481 19.4257 21.9184 19.1402 18.7119 19.1402H18.7229Z" fill="white"/>
<path d="M22.5337 14.3194C22.5337 12.211 20.8316 10.5089 18.7232 10.5089C16.6148 10.5089 14.9127 12.211 14.9127 14.3194C14.9127 16.4279 16.6148 18.119 18.7232 18.119C20.8316 18.119 22.5337 16.4169 22.5337 14.3194ZM18.7232 16.2631C17.6471 16.2631 16.7795 15.3956 16.7795 14.3194C16.7795 13.2433 17.6471 12.3648 18.7232 12.3648C19.7994 12.3648 20.6669 13.2323 20.6669 14.3194C20.6669 15.4066 19.7884 16.2631 18.7232 16.2631Z" fill="white"/>
<path d="M50.4921 13.8363C49.7234 14.2207 48.8779 14.4074 47.9554 14.4074C46.418 14.4074 45.1003 13.8913 44.0022 12.881C42.8931 11.8597 42.344 10.6298 42.344 9.19126C42.344 7.75272 42.8931 6.52281 44.0022 5.49057C45.1003 4.46931 46.418 3.96417 47.9554 3.96417C48.8779 3.96417 49.7234 4.13987 50.5031 4.52422C51.2718 4.89758 51.9087 5.40272 52.4028 6.05062H56.422V5.33683C56.422 5.02936 56.3561 4.75483 56.2133 4.50226C56.0706 4.26067 55.9169 4.13987 55.7521 4.13987H55.7302V3.71161H59.4089V17.2186H56.422V12.3539H52.4028C51.8867 12.9798 51.2608 13.474 50.4811 13.8473L50.4921 13.8363ZM48.3727 16.3071V20.0518H59.6944V22.3798H45.3638V17.9324C45.3638 17.6249 45.298 17.3394 45.1662 17.0978C45.0344 16.8562 44.8697 16.7244 44.694 16.7244V16.3071H48.3727ZM46.1325 6.98403C45.6164 7.59898 45.3748 8.32374 45.3748 9.1693C45.3748 10.0149 45.6274 10.7506 46.1325 11.3656C46.6377 11.9585 47.2526 12.255 47.9664 12.255C48.6802 12.255 49.3061 11.9585 49.8222 11.3656C50.3384 10.7506 50.5909 10.0258 50.5909 9.1693C50.5909 8.31276 50.3274 7.59898 49.8222 6.98403C49.3061 6.39104 48.6912 6.07258 47.9664 6.07258C47.2416 6.07258 46.6377 6.38006 46.1325 6.98403ZM56.444 10.0039V8.37865H53.501C53.5449 8.51042 53.5669 8.6422 53.5888 8.76299C53.5998 8.89477 53.6108 9.03753 53.6108 9.18028C53.6108 9.32304 53.6108 9.45481 53.5888 9.58659C53.5778 9.71837 53.5449 9.86112 53.501 9.9929H56.444V10.0039Z" fill="#767575"/>
<path d="M69.7752 12.4417C70.1266 12.6943 70.456 12.9578 70.7745 13.2324C71.2686 13.6387 71.7189 14.056 72.1252 14.4733C72.5315 14.8905 72.8829 15.2859 73.1574 15.6922L71.4882 17.8884C71.2357 17.4931 70.8843 16.988 70.4121 16.406C69.9399 15.8349 69.5336 15.3408 69.1602 14.9564C68.9186 14.6929 68.6661 14.4513 68.4025 14.1987C68.139 13.9462 67.8534 13.7265 67.5569 13.5179C67.0298 14.2646 66.4588 14.9674 65.8329 15.6263C65.207 16.2852 64.4932 16.8782 63.7025 17.3833L62.3738 16.0436C63.0656 15.4286 63.7684 14.649 64.4712 13.7375C65.174 12.8261 65.7231 11.8707 66.1294 10.8824C66.4259 10.1357 66.6784 9.38893 66.8871 8.65318C67.0957 7.91744 67.2055 7.15973 67.2275 6.38006C67.2495 5.72118 67.1506 5.28193 66.92 5.01838C66.6784 4.75483 66.4808 4.61207 66.2941 4.60109V4.1838H70.6317C70.6317 5.77609 70.445 7.18169 70.0826 8.42257C69.7203 9.65248 69.2481 10.7616 68.688 11.7499C69.0724 11.9585 69.4347 12.1892 69.7861 12.4417H69.7752ZM77.3083 3.71161V22.4127H74.4971V11.1679H71.5322V8.86182H74.4971V5.36978C74.4971 5.04034 74.4312 4.75483 74.2995 4.50226C74.1567 4.26067 74.003 4.13987 73.8163 4.13987V3.71161H77.3083ZM81.5471 3.71161V22.4127H78.5492V3.71161H81.5471Z" fill="#767575"/>
<path d="M85.0392 18.712V5.82001C85.0392 5.50156 84.9734 5.21604 84.8306 4.96347C84.6988 4.72189 84.5451 4.59011 84.3584 4.59011V4.1838H92.803V6.52282H88.0371V16.384H95.164V5.3588C95.164 5.02936 95.0981 4.75483 94.9553 4.50226C94.8126 4.24969 94.6588 4.1289 94.4941 4.1289V3.70063H97.9642V8.85085H99.3149V3.71161H102.302V22.4237H99.3149V11.1679H97.9642V22.4237H95.164V18.723H85.0283L85.0392 18.712Z" fill="#767575"/>
<path d="M105.333 6.64363V4.29364H109.802V4.18383C109.769 3.9093 109.692 3.65673 109.571 3.44808C109.44 3.23944 109.297 3.12962 109.143 3.12962H109.121V2.7343H112.811V4.29364H117.006V6.64363H114.557C115.128 7.06092 115.589 7.56606 115.907 8.14807C116.237 8.74106 116.391 9.36699 116.391 10.0478C116.391 11.3107 115.864 12.3868 114.831 13.2653C113.788 14.1548 112.525 14.6051 111.054 14.6051C109.582 14.6051 108.363 14.1658 107.309 13.2653C106.255 12.3868 105.739 11.3107 105.739 10.0478C105.739 9.36699 105.904 8.74106 106.222 8.14807C106.551 7.55508 106.991 7.06092 107.54 6.64363H105.344H105.333ZM122.397 16.0216V22.3908H119.389V18.3716H106.881V16.0216H122.397ZM109.385 7.96139C108.912 8.48849 108.693 9.14737 108.693 9.90508C108.693 10.6628 108.912 11.2997 109.385 11.8378C109.835 12.3868 110.395 12.6614 111.032 12.6614C111.669 12.6614 112.262 12.3868 112.723 11.8378C113.184 11.2997 113.415 10.6518 113.415 9.90508C113.415 9.15835 113.184 8.48849 112.723 7.96139C112.262 7.42331 111.702 7.14877 111.032 7.14877C110.362 7.14877 109.835 7.41232 109.385 7.96139ZM122.343 3.70065V8.82891H125.286V11.135H122.343V14.4403H119.345V5.33686C119.345 5.00742 119.279 4.72191 119.136 4.46934C119.004 4.22775 118.839 4.10696 118.664 4.10696V3.70065H122.343Z" fill="#767575"/>
<path d="M140.088 6.5228H128.426V4.18379H143.075V19.1403H144.898V21.4573H127.438V19.1403H130.557V14.2097C130.557 13.8803 130.491 13.5948 130.348 13.3532C130.216 13.1006 130.063 12.9798 129.876 12.9798V12.5735H133.225V19.1403H134.839V12.5735H137.716V19.1403H140.11V6.5228H140.088Z" fill="#767575"/>
<path d="M166.235 18.4375H152.849V16.1095H166.235V18.4375ZM155.22 12.7163C154.122 11.706 153.573 10.4761 153.573 9.03753C153.573 7.59898 154.122 6.36908 155.22 5.33683C156.319 4.31558 157.636 3.79946 159.174 3.79946C160.711 3.79946 162.051 4.31558 163.149 5.33683C164.247 6.36908 164.807 7.59898 164.807 9.03753C164.807 10.4761 164.258 11.706 163.149 12.7163C162.051 13.7265 160.722 14.2427 159.174 14.2427C157.625 14.2427 156.319 13.7265 155.22 12.7163ZM157.34 6.83029C156.835 7.44524 156.571 8.17 156.571 9.01556C156.571 9.86112 156.824 10.6078 157.34 11.2008C157.845 11.8048 158.46 12.1013 159.174 12.1013C159.888 12.1013 160.513 11.8048 161.03 11.2008C161.546 10.5969 161.798 9.86112 161.798 9.01556C161.798 8.17 161.546 7.44524 161.03 6.83029C160.513 6.22632 159.898 5.91884 159.174 5.91884C158.449 5.91884 157.845 6.21534 157.34 6.83029ZM167.563 22.4786V5.38076C167.563 5.0623 167.498 4.77679 167.366 4.52422C167.245 4.27165 167.08 4.16184 166.883 4.16184V3.71161H170.572V22.4896H167.563V22.4786Z" fill="#767575"/>
<path d="M192.623 19.2611V21.6001H174.657V19.2611H179.335V17.2735C179.335 16.944 179.259 16.6585 179.127 16.406C178.984 16.1644 178.83 16.0436 178.655 16.0436V15.6482H182.322V19.2611H185.463V17.2735C185.463 16.944 185.386 16.6585 185.243 16.406C185.101 16.1644 184.947 16.0436 184.782 16.0436H184.76V15.6482H188.439V19.2611H192.623ZM190.954 10.4212H178.973V12.3209H190.954V14.6929H175.975V9.82817C175.975 9.49873 175.909 9.21321 175.767 8.97163C175.635 8.73004 175.47 8.59826 175.294 8.59826V8.20294H187.956V6.57771H175.909V4.20575H190.954V10.4321V10.4212Z" fill="#767575"/>
<path d="M201.957 14.4843H195.357V12.1343H208.633V14.4843H204.955V18.0862H201.968V14.4843H201.957ZM197.498 10.2785C196.389 9.49881 195.84 8.54344 195.84 7.43433C195.84 6.32522 196.389 5.36985 197.498 4.5792C198.608 3.79953 199.925 3.41518 201.463 3.41518C203 3.41518 204.34 3.79953 205.438 4.5792C206.536 5.35887 207.085 6.31424 207.085 7.43433C207.085 8.55442 206.536 9.49881 205.438 10.2785C204.34 11.0582 203.022 11.4425 201.463 11.4425C199.903 11.4425 198.608 11.0582 197.498 10.2785ZM213.421 20.1287V22.4677H198.036V18.0422C198.036 17.7128 197.96 17.4273 197.828 17.1857C197.685 16.9441 197.531 16.8233 197.356 16.8233V16.3951H201.045V20.1397H213.421V20.1287ZM199.618 6.03971C199.102 6.42405 198.838 6.88527 198.838 7.42335C198.838 7.96143 199.102 8.43363 199.618 8.82895C200.134 9.2133 200.749 9.41096 201.463 9.41096C202.176 9.41096 202.802 9.20232 203.308 8.82895C203.813 8.43363 204.065 7.97241 204.065 7.42335C204.065 6.87428 203.813 6.42405 203.308 6.03971C202.802 5.65536 202.176 5.4577 201.463 5.4577C200.749 5.4577 200.134 5.65536 199.618 6.03971ZM210.127 11.0691H207.415V8.76306H210.127V5.35887C210.127 5.02943 210.061 4.7549 209.918 4.50233C209.786 4.24976 209.633 4.12896 209.446 4.12896V3.70069H213.125V18.207H210.127V11.0691Z" fill="#767575"/>
</svg>
