<svg width="14" height="14" viewBox="0 0 14 14" fill="none" xmlns="http://www.w3.org/2000/svg">
<path d="M11.0834 6.04545C11.0834 9.38636 7.00008 12.25 7.00008 12.25C7.00008 12.25 2.91675 9.38636 2.91675 6.04545C2.91675 4.90623 3.34696 3.81366 4.11273 3.00811C4.8785 2.20256 5.91711 1.75 7.00008 1.75C8.08305 1.75 9.12166 2.20256 9.88743 3.00811C10.6532 3.81366 11.0834 4.90623 11.0834 6.04545Z" stroke="white" stroke-linecap="round" stroke-linejoin="round"/>
<path d="M7 7.58333C7.9665 7.58333 8.75 6.79983 8.75 5.83333C8.75 4.86683 7.9665 4.08333 7 4.08333C6.0335 4.08333 5.25 4.86683 5.25 5.83333C5.25 6.79983 6.0335 7.58333 7 7.58333Z" stroke="white" stroke-linecap="round" stroke-linejoin="round"/>
</svg>
