<svg width="15" height="13" viewBox="0 0 15 13" fill="none" xmlns="http://www.w3.org/2000/svg">
<path d="M11.7673 2.34591H13.1132M13.1132 2.34591H14.4592M13.1132 2.34591V1M13.1132 2.34591V3.69183" stroke="black" stroke-width="0.75" stroke-linecap="round" stroke-linejoin="round"/>
<path d="M14.0554 11.7673H1.40377C1.18078 11.7673 1 11.5865 1 11.3635V5.71069H14.0554C14.2784 5.71069 14.4591 5.89145 14.4591 6.11447V11.3635C14.4591 11.5865 14.2784 11.7673 14.0554 11.7673Z" stroke="black" stroke-width="0.75" stroke-linecap="round" stroke-linejoin="round"/>
<path d="M1 5.7107V1.40377C1 1.18078 1.18078 1 1.40377 1H5.56134C5.65772 1 5.75092 1.03448 5.8241 1.09721L7.95265 2.92166C8.0258 2.98439 8.11901 3.01887 8.21544 3.01887H9.07548" stroke="black" stroke-width="0.75" stroke-linecap="round" stroke-linejoin="round"/>
</svg>
