<svg width="52" height="42" viewBox="0 0 52 42" fill="none" xmlns="http://www.w3.org/2000/svg">
<path d="M39.4505 41.9999H12.5499C9.012 41.9999 6.13281 39.1293 6.13281 35.6019V18.1989C6.13281 14.6716 9.012 11.8009 12.5499 11.8009H39.4505C42.9884 11.8009 45.8676 14.6716 45.8676 18.1989V35.6019C45.8676 39.1293 42.9884 41.9999 39.4505 41.9999ZM12.5499 14.2885C10.3892 14.2885 8.62777 16.0397 8.62777 18.1989V35.6019C8.62777 37.7562 10.3842 39.5124 12.5499 39.5124H39.4505C41.6112 39.5124 43.3726 37.7611 43.3726 35.6019V18.1989C43.3726 16.0447 41.6112 14.2885 39.4505 14.2885H12.5499Z" fill="#00387F"/>
<path d="M45.084 34.7861C44.3954 34.7861 43.8365 34.2289 43.8365 33.5423C43.8365 32.8558 44.3954 32.2985 45.084 32.2985C47.5241 32.2985 49.5051 30.3184 49.5051 27.8856V25.9005C49.5051 23.4677 47.5191 21.4926 45.084 21.4926C44.3954 21.4926 43.8365 20.9354 43.8365 20.2488C43.8365 19.5622 44.3954 19.005 45.084 19.005C48.8963 19.005 52.0001 22.0995 52.0001 25.9005V27.8856C52.0001 31.6916 48.8963 34.7861 45.084 34.7861Z" fill="#00387F"/>
<path d="M6.92103 35.2836C3.23347 35.2836 0 31.8259 0 27.8856V25.9006C0 22.0996 3.10373 19.005 6.92103 19.005C7.60963 19.005 8.16851 19.5622 8.16851 20.2488C8.16851 20.9354 7.60963 21.4926 6.92103 21.4926C4.48095 21.4926 2.49496 23.4727 2.49496 25.9006V27.8856C2.49496 30.1145 4.08675 32.1742 6.01785 32.6767C6.2424 32.4428 6.56175 32.2936 6.91604 32.2936C7.60464 32.2936 8.16352 32.8508 8.16352 33.5374V34.0349C8.16352 34.7215 7.60464 35.2787 6.91604 35.2787L6.92103 35.2836Z" fill="#00387F"/>
<path d="M21.7163 24.9603C21.7163 23.7812 20.7582 22.821 19.5756 22.821C18.393 22.821 17.4349 23.7762 17.4349 24.9603C17.4349 26.1443 18.393 27.0946 19.5756 27.0946C20.7582 27.0946 21.7163 26.1394 21.7163 24.9603Z" fill="#00387F"/>
<path d="M34.5753 24.9602C34.5753 23.7811 33.6172 22.8209 32.4296 22.8209C31.242 22.8209 30.2889 23.7761 30.2889 24.9602C30.2889 26.1443 31.247 27.0946 32.4296 27.0946C33.6122 27.0946 34.5753 26.1393 34.5753 24.9602Z" fill="#00387F"/>
<path d="M32.7539 33.2537H19.2511C18.5625 33.2537 18.0037 32.6964 18.0037 32.0099C18.0037 31.3233 18.5625 30.7661 19.2511 30.7661H32.7539C33.4425 30.7661 34.0014 31.3233 34.0014 32.0099C34.0014 32.6964 33.4425 33.2537 32.7539 33.2537Z" fill="#00387F"/>
<path d="M26.0025 8.89557C23.5425 8.89557 21.5415 6.90054 21.5415 4.44781C21.5415 1.99507 23.5425 4.57764e-05 26.0025 4.57764e-05C28.4625 4.57764e-05 30.4635 1.99507 30.4635 4.44781C30.4635 6.90054 28.4625 8.89557 26.0025 8.89557ZM26.0025 2.48761C24.9197 2.48761 24.0365 3.36821 24.0365 4.44781C24.0365 5.52741 24.9197 6.40801 26.0025 6.40801C27.0853 6.40801 27.9685 5.52741 27.9685 4.44781C27.9685 3.36821 27.0853 2.48761 26.0025 2.48761Z" fill="#00387F"/>
<path d="M26.0026 13.0648C25.314 13.0648 24.7551 12.5076 24.7551 11.821V7.97524C24.7551 7.28867 25.314 6.73146 26.0026 6.73146C26.6912 6.73146 27.2501 7.28867 27.2501 7.97524V11.821C27.2501 12.5076 26.6912 13.0648 26.0026 13.0648Z" fill="#00387F"/>
</svg>
