<svg width="120" height="120" viewBox="0 0 120 120" fill="none" xmlns="http://www.w3.org/2000/svg">
<path d="M47.5 15C56.1195 15 64.386 18.4241 70.481 24.519C76.5759 30.614 80 38.8805 80 47.5C80 55.55 77.05 62.95 72.2 68.65L73.55 70H77.5L102.5 95L95 102.5L70 77.5V73.55L68.65 72.2C62.95 77.05 55.55 80 47.5 80C38.8805 80 30.614 76.5759 24.519 70.481C18.4241 64.386 15 56.1195 15 47.5C15 38.8805 18.4241 30.614 24.519 24.519C30.614 18.4241 38.8805 15 47.5 15ZM47.5 25C35 25 25 35 25 47.5C25 60 35 70 47.5 70C60 70 70 60 70 47.5C70 35 60 25 47.5 25Z" fill="black"/>
</svg>
