<svg width="24" height="24" viewBox="0 0 24 24" fill="none" xmlns="http://www.w3.org/2000/svg">
<circle cx="12" cy="12" r="12" fill="#D9D9D9"/>
<path d="M14.8616 13.9182H14.3648L14.1887 13.7484C14.805 13.0314 15.1761 12.1006 15.1761 11.0881C15.1761 8.83019 13.3459 7 11.0881 7C8.83019 7 7 8.83019 7 11.0881C7 13.3459 8.83019 15.1761 11.0881 15.1761C12.1006 15.1761 13.0314 14.805 13.7484 14.1887L13.9182 14.3648V14.8616L15.4906 16.4308L17.0629 18L18 17.0629L14.8616 13.9182ZM11.0881 13.9182C9.52201 13.9182 8.25786 12.6541 8.25786 11.0881C8.25786 9.52201 9.52201 8.25786 11.0881 8.25786C12.6541 8.25786 13.9182 9.52201 13.9182 11.0881C13.9182 12.6541 12.6541 13.9182 11.0881 13.9182Z" fill="white"/>
</svg>
