<svg width="40" height="40" viewBox="0 0 40 40" fill="none" xmlns="http://www.w3.org/2000/svg">
<g clip-path="url(#clip0_1_1815)">
<path d="M9.25544 20.5914H35.1827M9.25544 20.5914L5.13065 32.9657C5.06953 33.1303 5.05693 33.3089 5.09435 33.4804C5.13177 33.6519 5.21764 33.809 5.34176 33.9331C5.46588 34.0572 5.62302 34.1431 5.79451 34.1805C5.966 34.218 6.14463 34.2054 6.30917 34.1442L35.1827 20.5914M9.25544 20.5914L5.13065 8.21699C5.06953 8.05245 5.05693 7.87382 5.09435 7.70233C5.13177 7.53084 5.21764 7.3737 5.34176 7.24958C5.46588 7.12546 5.62302 7.03959 5.79451 7.00217C5.966 6.96475 6.14463 6.97735 6.30917 7.03847L35.1827 20.5914" stroke="#9F9F9F" stroke-width="3.33333" stroke-linecap="round" stroke-linejoin="round"/>
</g>
<defs>
<clipPath id="clip0_1_1815">
<rect width="40" height="40" fill="white"/>
</clipPath>
</defs>
</svg>
