<svg width="483" height="483" viewBox="0 0 483 483" fill="none" xmlns="http://www.w3.org/2000/svg">
<g opacity="0.1">
<path fill-rule="evenodd" clip-rule="evenodd" d="M241.274 0C108.318 0 0 108.172 0 241.274C0 374.23 108.027 482.694 241.274 482.694C374.522 482.694 482.694 374.376 482.694 241.274C482.694 108.172 374.23 0 241.274 0ZM65.4572 241.128C65.4572 338.367 144.181 417.09 241.274 417.09C338.367 417.09 417.09 338.075 417.09 241.128C417.09 144.181 338.367 65.3114 241.274 65.3114C144.181 65.3114 65.4572 143.889 65.4572 241.128ZM37.9055 298.422C37.9055 302.212 40.8212 305.274 44.7574 305.274C48.6936 305.274 51.4635 302.358 51.4635 298.422C51.4635 294.486 48.5478 291.57 44.7574 291.57C40.9669 291.57 37.9055 294.631 37.9055 298.422ZM447.268 299.297C447.268 303.081 444.2 306.148 440.416 306.148C436.632 306.148 433.564 303.081 433.564 299.297C433.564 295.512 436.632 292.445 440.416 292.445C444.2 292.445 447.268 295.512 447.268 299.297ZM47.6727 160.363C42.8618 158.76 38.4883 159.051 34.6979 160.947C30.4701 163.133 27.4086 167.361 25.6592 172.755C23.9098 178.295 24.2013 183.252 26.3881 187.479C28.5749 191.707 32.5111 194.914 37.1762 196.372C45.4859 198.996 56.274 196.372 60.0644 184.126C61.8139 178.878 61.3765 173.776 59.1897 169.256C56.8572 165.028 52.921 161.675 47.9643 160.218L47.6727 160.363ZM57.5861 181.502C55.1077 189.229 46.9438 192.436 37.7593 189.52C26.2423 185.876 26.6797 178.878 27.846 174.942C28.8665 171.88 30.9074 169.402 33.6774 168.09C37.322 166.195 42.1329 165.903 47.0896 167.507C52.1921 169.11 55.3993 171.589 57.003 174.504C58.4608 177.42 57.8777 180.19 57.5861 181.502ZM89.0761 110.214L95.3449 116.191C97.3859 116.191 100.447 113.713 102.197 111.818C104.238 109.631 105.55 107.444 105.987 105.111C106.862 100.592 104.529 97.6764 103.071 96.2186C99.8642 93.1571 96.2196 92.4282 89.2219 93.4487C89.2219 93.5945 87.7641 93.7402 87.7641 93.7402C82.8074 94.4692 81.3495 94.0318 80.0375 92.8655C78.1423 91.1161 78.288 88.492 80.329 86.3052C82.0785 84.5558 83.8279 84.5558 84.9942 84.5558C87.3267 84.5558 88.6388 86.3052 88.6388 86.3052L89.9508 84.9931L84.5568 79.7449C84.5568 79.7449 82.5158 80.0365 78.7254 83.9726C74.2061 88.6378 73.7687 94.3234 77.7049 97.968C80.4748 100.592 84.2652 101.467 90.3882 100.592L93.0123 100.155C97.5317 99.5716 99.4269 100.446 101.03 101.904C102.634 103.508 102.926 106.569 100.447 109.339C99.1353 110.797 96.5112 112.546 93.1581 110.797C92.4292 110.36 90.2424 108.902 90.2424 108.902L89.0761 110.214ZM393.472 124.209L400.616 119.253L401.636 120.856C401.636 120.856 399.741 122.606 399.158 123.335C396.68 126.25 397.992 129.166 399.158 130.624C401.199 133.685 404.26 133.977 406.156 132.519C408.051 131.353 409.217 129.603 409.509 125.084V122.46C410.092 116.337 411.695 112.838 414.903 110.505C419.276 107.59 424.816 109.193 428.461 114.442C431.376 118.961 431.376 121.002 431.376 121.002L425.108 125.23L423.941 123.48C423.941 123.48 425.837 122.606 426.565 120.419C426.857 119.253 427.149 117.649 425.691 115.462C423.941 112.984 421.463 112.401 419.422 113.859C417.964 114.879 417.089 116.191 416.944 121.148V122.751C416.361 129.895 415.048 133.248 411.404 135.726C409.8 136.893 406.301 138.496 402.074 136.601C399.887 135.726 397.992 133.977 396.388 131.499C394.784 129.312 393.181 125.813 393.472 123.918V124.209ZM125.669 71.8725C124.211 69.8315 123.773 69.3941 121.878 70.7062V70.5604L116.484 74.4966L124.794 85.7221L130.625 81.3485C132.375 79.8907 132.812 78.1412 130.771 75.3713L132.083 74.4966L136.748 80.7654L118.379 94.6149L117.359 93.1571C117.419 93.1133 117.477 93.0704 117.535 93.0283C117.606 92.977 117.675 92.9269 117.743 92.8779L117.745 92.8763L117.746 92.8757C119.658 91.4903 120.433 90.9293 118.379 88.0546C118.379 88.0546 105.259 70.5604 103.364 67.9363C101.532 65.5415 99.2925 67.2304 98.0913 68.1362L97.9695 68.2279L96.949 66.9158L115.026 53.3578L119.254 59.0434L117.942 60.0639C116.63 58.1687 115.464 57.0024 112.985 58.7518L107.737 62.688L114.735 72.1641L120.129 68.0821C122.024 66.77 121.587 66.0411 120.129 64.1459L121.441 63.2712L126.981 70.852L125.669 71.8725ZM361.692 72.6014C363.587 73.9134 363.149 74.6424 361.692 76.5376L363.149 77.4123L368.398 69.5399L367.086 68.6652C365.774 70.7062 365.19 71.2893 363.441 69.9772L357.901 66.3326L364.461 56.565C364.461 56.565 368.835 59.4807 369.856 60.2096C372.48 61.9591 371.605 63.4169 370.293 65.3121L371.751 66.3326L375.687 60.3554L357.026 47.8179L356.006 49.13L356.06 49.166L356.106 49.1965L356.219 49.2703L356.266 49.3008C357.628 50.1913 359.824 51.6264 358.047 54.0867L344.052 75.0797C342.108 77.9953 341.222 77.3409 339.253 75.8868C339.155 75.814 339.053 75.7393 338.949 75.6628L338.074 77.2665L357.172 89.9498L361.546 83.5352L360.234 82.6605C358.339 85.4304 356.443 85.722 354.548 84.41C353.236 83.5352 348.571 80.4738 348.571 80.4738L356.298 68.811L361.837 72.4556L361.692 72.6014ZM143.743 39.6535C141.265 40.8197 140.244 41.4029 141.265 43.4439L141.556 43.2981C141.556 43.2981 152.782 65.02 153.948 67.3526C155.002 69.593 156.891 68.6167 158.751 67.6547C158.949 67.5526 159.146 67.4506 159.342 67.3526L160.071 68.8104L146.367 75.8081L145.638 74.496C147.971 73.184 148.991 72.4551 147.971 70.5599C147.971 70.5599 136.162 47.6716 135.579 46.3596C134.267 43.8812 131.06 46.2138 131.06 46.2138L130.331 44.7559L143.014 38.1956L143.743 39.6535ZM214.888 34.9886L212.118 21.139C211.68 18.9522 212.701 18.6607 215.471 18.2233L215.179 16.6197L202.933 19.098L203.225 20.7017C203.225 20.7017 207.015 19.3896 207.598 22.3053C207.598 22.8884 210.514 37.0296 210.514 37.0296C211.389 41.8405 211.972 45.6309 210.223 48.4008C208.473 50.8791 205.849 51.7539 204.683 51.8996C203.079 52.1912 201.184 52.337 198.997 51.1707C196.956 50.1502 194.915 48.255 193.457 41.1116L190.396 25.8041C189.958 23.6174 190.979 23.3258 193.749 22.7427L193.457 21.139L179.462 23.9089L179.754 25.5126C179.754 25.5126 183.544 24.2005 184.127 26.9704C184.127 27.6993 187.334 42.7152 187.334 42.7152C188.501 48.5466 190.542 52.0454 193.749 53.9406C197.482 56.2069 201.702 55.5475 203.957 55.1951C204.168 55.1622 204.362 55.1319 204.537 55.1069C207.161 54.5238 210.514 53.5033 213.284 50.0044C216.491 45.9225 215.908 40.5284 214.888 35.4259V34.9886ZM300.319 25.0753C297.695 24.3463 296.528 24.0548 296.091 26.3873L295.945 26.5331C295.945 26.5331 290.405 50.296 289.822 52.9202C289.31 55.2268 291.388 55.7312 293.383 56.2155C293.658 56.2822 293.931 56.3485 294.196 56.419L293.904 57.8769L278.888 54.5238L279.18 52.9202C281.804 53.5033 282.97 53.6491 283.554 51.4623C283.554 51.4623 289.385 26.3873 289.676 25.0753C290.26 22.1596 286.323 21.868 286.323 21.868L286.761 20.2644L300.756 23.4716L300.319 25.0753ZM442.021 147.243C444.062 146.369 444.645 147.243 445.812 149.576L447.269 148.993L441.001 136.164L439.543 136.893C439.543 136.893 441.875 140.1 439.105 141.412C437.793 141.995 414.759 153.366 414.759 153.366C412.795 154.348 412.316 153.44 411.114 151.163L410.969 150.888L409.511 151.471L416.363 165.321L417.821 164.737C417.736 164.569 417.649 164.398 417.561 164.226C416.585 162.318 415.536 160.267 417.675 159.198C420.153 158.031 442.021 147.243 442.021 147.243ZM446.539 164.883L453.682 163.862L453.974 164.008L462.284 192.29L455.723 195.206L455.14 193.457C457.327 192.436 458.785 191.561 457.91 188.646C457.764 188.062 457.473 187.042 455.869 182.085C453.355 182.851 440.921 186.485 433.813 188.563C431.443 189.256 429.665 189.775 429.045 189.958C426.766 190.591 427.345 192.542 427.919 194.477C428.006 194.77 428.093 195.063 428.17 195.352L426.712 195.789L422.339 181.065L423.942 180.627C424.671 183.397 424.963 184.418 427.149 183.689C427.149 183.689 450.038 176.983 453.974 175.817C453.026 172.237 452.535 170.71 452.28 169.918C452.182 169.614 452.119 169.418 452.079 169.256C451.204 166.195 449.455 166.341 447.122 166.778L446.539 164.883ZM404.554 88.3461C403.971 85.2846 401.93 82.952 399.889 80.911L390.267 71.435L389.101 72.6013C389.101 72.6013 392.308 74.9338 390.267 77.1206C389.247 78.1411 371.169 96.3642 371.169 96.3642C369.566 97.9679 368.691 97.2389 366.796 95.198L365.63 96.3642L376.709 107.152L377.73 105.986C377.547 105.803 377.357 105.621 377.166 105.438C375.681 104.011 374.155 102.546 375.835 100.738L383.124 93.4485L386.04 96.3642L384.728 104.091C383.999 108.61 383.853 111.38 384.436 113.421C384.873 114.879 385.602 115.899 387.352 117.649L390.705 120.856L391.725 119.836L390.996 118.815C390.996 118.815 389.538 116.774 389.684 113.275C389.684 109.922 390.122 105.694 390.85 100.446C390.85 100.446 390.996 98.6968 391.142 98.1136C396.39 98.551 399.889 97.6763 402.513 94.9064C404.992 92.5738 404.992 89.5123 404.7 88.0545L404.554 88.3461ZM396.39 92.5738C393.475 95.4895 391.142 95.6353 389.976 95.4895C389.101 95.3437 388.518 95.0522 387.352 93.7401L385.019 91.4075L395.661 80.6195L397.265 82.2231C399.014 83.9725 400.764 88.0545 396.39 92.428V92.5738ZM35.4261 217.658C36.8839 218.387 38.196 218.532 39.6539 218.678L39.7996 218.532C39.7996 218.532 44.0274 218.824 47.3805 219.116C50.5925 219.395 50.7276 217.132 50.8614 214.891L50.8615 214.889C50.8674 214.791 50.8732 214.694 50.8793 214.596H52.3372L50.8793 229.758H49.4214L49.4293 229.632C49.5715 227.373 49.6603 225.962 46.7973 225.676C43.8816 225.384 39.2165 224.947 39.2165 224.947C36.8839 224.801 35.8634 225.093 34.5514 225.53C34.4324 225.59 33.9004 225.849 33.108 226.237C30.0177 227.747 22.9659 231.192 20.9934 232.236C19.3897 233.111 18.0777 234.131 17.4945 234.86C16.7656 236.027 16.6198 237.63 16.6198 237.63H15.0162L16.1825 224.801H17.7861V226.113C17.7861 226.405 17.9319 226.551 18.0777 226.551C18.3185 226.551 18.6476 226.418 18.9435 226.299C19.1851 226.202 19.4045 226.113 19.5355 226.113C20.556 225.676 32.9477 219.99 32.9477 219.99C32.9477 219.99 22.597 212.847 21.8681 212.555C21.1392 212.118 20.4102 211.826 19.8271 211.826C19.3897 211.826 18.9524 211.972 18.9524 212.409V213.43H17.203L18.2235 202.059H19.8271V203.371C19.8271 203.954 19.8271 204.537 20.1187 205.266C20.4102 206.141 20.8476 206.724 22.0139 207.744C23.6175 209.494 33.5309 216.783 35.4261 217.658ZM443.332 225.675C443.699 225.675 444.056 225.657 444.411 225.638C445.468 225.584 446.505 225.53 447.705 225.967C449.601 226.55 460.826 231.798 462.721 233.11C464.033 233.839 464.616 234.276 465.054 235.151C465.402 235.615 465.565 236.172 465.691 236.601L465.692 236.604L465.694 236.612L465.697 236.621L465.708 236.659C465.722 236.706 465.736 236.752 465.749 236.795L465.764 236.841C465.77 236.862 465.776 236.881 465.783 236.901V238.213H467.386L466.366 226.55H464.762V227.862C464.762 228.153 464.471 228.591 464.033 228.591C463.45 228.591 462.721 228.591 461.847 228.153C461.118 227.862 449.601 222.905 449.601 222.905C449.601 222.905 460.534 215.033 461.555 214.45C461.618 214.418 461.701 214.373 461.795 214.322C462.14 214.136 462.638 213.866 462.867 213.866C463.013 213.866 463.304 213.866 463.304 214.158L463.45 215.324H465.054L463.742 202.204H462.138C462.138 202.204 462.284 204.245 461.847 205.411C461.409 206.286 460.389 207.452 459.077 208.618C458.27 209.223 456.644 210.473 454.838 211.861L454.836 211.863L454.835 211.864C451.418 214.491 447.358 217.612 446.976 217.803C445.81 218.532 444.79 219.115 442.457 219.261C442.457 219.261 437.792 219.698 434.876 219.989C431.961 220.281 431.669 218.677 431.523 216.491H429.92L431.377 231.798H432.835C432.82 231.656 432.805 231.514 432.79 231.374C432.509 228.794 432.279 226.681 435.459 226.404C438.813 226.112 443.04 225.675 443.04 225.675H443.332ZM85.2848 130.769L86.5969 128.728L86.3053 129.02C86.3053 129.02 63.8544 115.17 60.7929 113.275C57.886 111.475 58.7908 110.07 59.7632 108.56L59.7642 108.558L59.7643 108.558L59.8424 108.437C59.8678 108.397 59.893 108.358 59.9182 108.318L58.6062 107.443L52.3374 117.503L53.7953 118.377C54.67 116.774 56.1278 114.295 59.0435 116.191C62.105 118.086 76.1004 126.687 76.1004 126.687C75.0799 126.833 47.6723 132.956 41.9867 134.268L40.8204 136.017C40.8204 136.017 62.8339 149.575 66.187 151.471C69.1627 153.499 68.2481 155.026 67.2855 156.633C67.2422 156.706 67.1988 156.778 67.1556 156.851L67.1182 156.914L67.1082 156.931L67.0617 157.01L68.5195 157.885L75.3714 146.951L73.9136 146.076C73.8224 146.225 73.7313 146.377 73.639 146.532L73.6382 146.533C72.5501 148.354 71.3068 150.436 68.0822 148.555L51.6085 138.35L85.2848 130.769ZM263.433 51.8998H261.246L238.65 25.8043L237.483 44.9021C237.201 48.8489 239.918 48.8433 242.206 48.8386H242.208L242.355 48.8384L242.44 48.8383V50.442L229.319 49.713V47.9636L229.45 47.9725L229.566 47.9805L229.568 47.9806C231.658 48.1256 233.553 48.2571 233.693 44.6106C233.985 40.6744 235.588 14.8704 235.588 14.8704H237.775C240.397 18.0971 249.992 29.2742 255.854 36.1015C258.467 39.1452 260.338 41.3243 260.517 41.5491C260.517 41.5491 261.538 25.2212 261.684 21.5765C261.958 18.2835 259.391 18.0898 257.63 17.9569C257.52 17.9486 257.413 17.9405 257.31 17.9319V16.3283L269.264 17.0572V18.8066C269.179 18.8005 269.094 18.7941 269.009 18.7878C267.079 18.6433 265.462 18.5222 265.183 22.0139C265.037 25.5127 263.433 51.8998 263.433 51.8998ZM347.551 41.5492L347.113 43.2986L347.259 43.5902L346.093 43.0071C343.906 42.1324 341.719 44.0276 341.719 44.0276L335.159 50.0048L316.644 67.0616L315.332 66.3327L315.915 33.8226C316.061 32.219 315.77 30.9069 315.332 30.0322C314.749 29.1575 313 28.4286 313 28.4286L313.583 26.9707L325.683 32.219L324.954 33.8226L323.788 33.2395C323.205 32.9479 322.622 33.2395 322.622 33.3853C322.33 33.6768 322.33 34.5516 322.33 34.5516L322.038 39.3625C321.747 44.7565 321.164 57.294 321.164 58.1687C321.893 57.294 327.432 51.9 327.432 51.9L337.054 42.1324C337.181 41.9735 337.309 41.8215 337.431 41.6749C337.871 41.1492 338.252 40.6932 338.366 40.2372C338.512 39.7998 337.783 39.2167 337.783 39.2167L336.617 38.6335L337.2 37.0299L347.551 41.5492ZM252.644 430.94V441.582H249.874V430.94H242.585V431.523C243.314 431.523 244.043 432.981 244.043 434.293V457.327H229.027V436.626H238.941V431.815H221.301V432.544C222.029 432.544 222.758 433.71 222.758 435.168V462.284H244.043V469.865H249.874V446.393H252.644V469.865H258.913V430.794H252.644V430.94ZM397.7 351.925C397.992 352.217 416.798 367.816 421.755 371.898H421.901C423.067 370.294 424.233 368.982 424.233 368.982C424.379 369.055 425.254 369.784 426.128 370.513C427.003 371.242 427.878 371.97 428.024 372.043C427.878 372.189 422.083 379.15 416.288 386.112C410.493 393.073 404.698 400.034 404.552 400.18C404.492 400.119 403.906 399.634 403.22 399.065C402.25 398.26 401.078 397.289 400.908 397.118C401.199 396.827 405.427 391.724 405.427 391.724L397.555 385.164C396.534 384.435 394.639 384.727 394.639 384.727C394.347 384.435 394.056 384.143 393.91 384.143C394.202 383.852 398.138 379.187 398.429 378.749C398.721 379.041 409.072 387.497 409.072 387.497L411.113 385.018C411.113 385.018 400.762 376.563 400.47 376.271C400.549 376.115 401.551 374.908 402.508 373.755C403.334 372.762 404.126 371.809 404.261 371.606C404.552 371.752 414.757 380.353 414.757 380.353C414.757 380.353 416.069 378.749 417.819 376.563C413.154 372.772 397.409 359.652 397.409 359.652C397.409 359.652 382.101 378.312 381.81 378.604C381.518 378.458 378.311 375.834 378.019 375.542C378.311 375.251 397.7 351.925 397.7 351.925ZM167.359 416.216C167.359 416.216 151.177 451.35 151.031 451.787C151.469 451.787 156.425 454.266 156.717 454.411C156.717 454.126 163.633 439.198 168.463 428.773L168.463 428.772C171.021 423.25 172.994 418.991 173.045 418.84C173.045 418.84 167.797 416.362 167.505 416.216H167.359ZM158.174 412.863C158.32 412.718 158.612 412.134 158.612 412.134C158.903 412.28 164.881 415.05 164.881 415.05C164.653 415.278 154.92 436.559 150.591 446.025L150.591 446.026L150.584 446.039L150.577 446.056C149.368 448.699 148.584 450.412 148.553 450.476C148.261 450.33 143.888 448.143 143.596 448.143C143.742 447.706 153.364 426.713 153.364 426.713C153.364 426.713 147.678 424.089 147.386 423.943C147.605 423.724 148.562 421.538 149.088 420.335C149.263 419.934 149.391 419.642 149.427 419.569C149.865 419.861 155.405 422.339 155.405 422.339L158.32 415.779C158.903 414.613 158.174 412.863 158.174 412.863ZM142.285 423.068V422.776C146.658 419.423 149.866 415.487 152.198 410.385C152.198 410.385 144.326 406.74 144.034 406.594C144.034 406.667 143.961 406.813 143.888 406.959C143.816 407.105 143.743 407.25 143.743 407.323C143.743 407.323 145.346 408.635 144.034 411.551C144.034 411.551 139.515 421.319 126.248 425.692C126.299 425.843 126.487 426.303 126.712 426.855L126.712 426.856C127.142 427.908 127.706 429.291 127.706 429.483C127.706 429.483 132.08 428.899 138.203 425.546H138.349C139.369 427.442 140.681 430.212 141.847 437.355C142.187 437.185 143.814 436.273 145.17 435.512L145.174 435.51L145.185 435.504L145.192 435.5L145.195 435.498C146.156 434.959 146.975 434.5 147.096 434.439C146.367 431.378 144.763 427.587 142.431 423.214L142.285 423.068ZM345.801 435.315L322.184 446.686C321.957 446.459 320.846 444.023 320.297 442.817L320.296 442.815C320.14 442.473 320.029 442.231 319.997 442.167C320.434 442.021 348.863 428.463 349.3 428.171C349.591 428.608 355.131 439.98 355.131 440.271C354.694 440.563 349.883 443.041 349.446 443.041C349.3 442.604 345.801 435.315 345.801 435.315ZM338.221 404.991L338.098 405.051C338.092 405.037 338.087 405.024 338.083 405.014C338.08 405.005 338.077 404.997 338.075 404.991H338.221ZM338.098 405.051C337.197 405.491 331.625 408.21 331.223 408.344C331.223 408.49 331.296 408.636 331.369 408.781C331.442 408.927 331.514 409.073 331.514 409.219C331.514 409.219 333.41 409.656 333.847 410.968C333.847 410.968 341.865 427.733 342.011 428.025C342.302 428.025 347.259 425.547 347.697 425.255C347.551 424.964 344.635 418.841 344.635 418.841C344.635 418.841 349.738 416.216 350.175 416.216C350.175 415.967 348.891 413.469 348.431 412.576L348.431 412.575C348.354 412.426 348.301 412.322 348.28 412.28C347.842 412.426 342.74 414.904 342.74 414.904C342.74 414.904 338.477 405.966 338.098 405.051ZM326.85 436.043C321.31 438.667 314.896 436.772 312.563 431.961L312.417 432.107C311.251 429.628 311.251 426.713 312.417 424.234C310.231 425.255 308.627 425.984 308.627 425.984C308.481 425.692 306.732 422.047 306.586 421.61C307.023 421.464 315.042 417.382 315.042 417.382C314.458 416.216 312.855 415.924 312.855 415.924C312.709 415.779 312.417 415.341 312.417 415.196C312.855 415.05 319.415 411.842 319.415 411.842C319.561 412.28 320.873 414.904 320.873 414.904C320.873 414.904 328.308 411.259 328.745 410.968C328.891 411.405 330.641 415.196 330.786 415.487C330.786 415.487 329.037 416.362 326.559 417.528C329.183 418.111 331.515 419.861 332.681 422.339C335.014 427.296 332.39 433.419 326.85 436.043ZM317.666 429.482C319.123 432.252 322.331 433.564 325.101 432.252C327.725 430.94 328.891 427.587 327.579 424.672C326.121 422.047 322.914 420.735 320.144 422.047C317.374 423.214 316.354 426.713 317.666 429.482ZM72.3099 374.667C72.3099 374.667 67.499 369.127 67.2074 368.836L66.6243 369.419C66.6243 369.419 66.6243 371.314 65.6038 372.189C65.6038 372.189 58.8977 378.02 58.6061 378.312C58.7519 378.457 63.5986 384.033 68.4456 389.609L68.4473 389.611C73.2944 395.187 78.1413 400.763 78.2871 400.908C78.3864 400.809 78.8238 400.439 79.3633 399.983L79.3657 399.981C80.4102 399.098 81.8356 397.893 81.9317 397.701C81.6401 397.41 66.3327 379.77 66.3327 379.77C66.3327 379.77 71.8725 374.813 72.1641 374.667H72.3099ZM84.1289 375.99C85.8813 378.034 89.3682 381.957 89.3682 381.957C89.3682 381.957 82.0789 388.517 81.6416 388.663C81.7338 388.755 82.162 389.242 82.7134 389.868C83.9042 391.222 85.67 393.228 85.8693 393.328C86.1609 393.182 106.862 375.105 107.154 374.667C107.008 374.522 105.842 373.173 104.676 371.825C103.509 370.476 102.343 369.128 102.197 368.982C102.051 368.982 101.614 369.419 101.468 369.565C101.468 369.565 101.468 371.46 100.448 372.335L99.4273 373.355C99.4273 373.355 94.6164 367.961 93.5959 366.649C93.8875 363.442 92.867 360.089 90.6802 357.465C86.3067 352.654 79.309 351.779 74.7897 355.715C70.2703 359.652 69.9788 366.795 74.3523 371.752C76.9423 374.773 80.6684 376.233 84.1289 375.99ZM93.0128 378.895L95.6369 376.563H95.4911C95.4911 376.563 93.1586 373.939 91.4092 371.898C90.9718 372.481 90.5344 373.064 89.9513 373.501C89.8055 373.793 89.3682 374.23 89.0766 374.23C90.826 376.271 93.0128 378.895 93.0128 378.895ZM87.0356 360.381C84.8488 358.048 81.0584 357.902 78.4343 360.089L78.2885 359.943C75.6644 362.276 75.227 366.066 77.4138 368.545C79.6006 371.023 83.391 371.169 86.0151 368.836C88.785 366.649 89.0766 362.713 87.0356 360.381Z" fill="#00387F"/>
<path d="M241.275 156.718C226.988 156.718 215.471 168.235 215.471 182.668C215.471 197.1 226.988 208.472 241.275 208.472C255.562 208.472 267.079 196.955 267.079 182.668C267.079 168.381 255.416 156.718 241.275 156.718Z" fill="#00387F"/>
<path fill-rule="evenodd" clip-rule="evenodd" d="M178.879 368.107C195.061 382.102 215.471 395.66 241.275 407.468C267.078 395.514 287.488 382.102 303.671 368.107L241.275 305.565L178.879 368.107ZM216.636 354.112C215.761 354.841 211.096 357.903 210.95 357.903C210.658 357.903 210.513 358.34 210.513 358.486C210.513 358.923 210.804 359.215 211.096 359.215H211.533L212.262 358.777L212.262 358.777C212.846 358.486 214.011 357.903 214.157 357.903V358.486V371.315C214.011 372.044 213.866 372.19 213.282 372.335H211.387C211.387 372.335 210.804 372.773 210.804 373.21C210.804 373.502 210.804 373.793 211.533 373.793H214.595H215.761H219.843C219.843 373.793 220.572 373.647 220.572 373.356C220.572 372.919 220.28 372.773 220.134 372.773H218.531C218.531 372.773 217.948 372.335 217.802 371.606V365.921V361.402V355.279V354.987C217.802 354.258 217.364 354.112 217.219 354.112L216.344 354.55L216.636 354.112ZM230.047 364.317C229.026 364.9 227.568 366.358 227.568 368.69H227.714C227.714 370.731 229.172 372.335 230.921 372.335C232.671 372.335 233.983 370.877 233.983 368.836C233.983 366.649 232.088 365.483 230.047 364.317ZM228.151 363.296C226.694 362.567 224.944 361.11 224.944 358.777V358.631C224.944 356.736 226.548 353.82 231.213 353.82C234.566 353.82 236.753 355.424 236.753 358.048C236.753 360.672 234.566 362.13 233.4 362.567C235.149 363.588 237.482 365.337 237.482 368.253C237.482 371.169 235.149 374.23 230.484 374.23C226.548 374.23 223.924 372.043 223.924 368.836C223.924 366.504 225.527 364.608 228.151 363.296ZM230.921 355.716C229.026 355.716 228.297 357.173 228.297 358.34C228.297 359.506 229.026 360.526 231.213 361.693C232.233 361.255 233.254 360.381 233.254 358.34C233.254 356.444 232.088 355.716 230.921 355.716ZM244.774 368.69C244.774 366.358 246.377 364.9 247.398 364.317C249.439 365.483 251.188 366.649 251.188 368.836C251.188 370.877 249.876 372.335 247.981 372.335C246.086 372.335 244.628 370.731 244.628 368.69H244.774ZM242.295 358.777C242.295 361.11 244.045 362.567 245.502 363.296C242.878 364.608 241.275 366.504 241.275 368.836C241.275 372.043 243.899 374.23 247.835 374.23C252.5 374.23 254.833 371.169 254.833 368.253C254.833 365.337 252.354 363.588 250.605 362.567C251.771 362.13 253.812 360.672 253.812 358.048C253.812 355.424 251.625 353.82 248.418 353.82C243.753 353.82 242.149 356.736 242.149 358.631L242.295 358.777ZM245.502 358.34C245.502 357.173 246.231 355.716 248.127 355.716C249.439 355.716 250.605 356.444 250.605 358.34C250.605 360.381 249.439 361.255 248.564 361.693C246.377 360.526 245.502 359.506 245.502 358.34ZM267.223 354.112H268.827L268.681 353.82H268.973C269.556 353.82 269.556 354.695 269.556 354.695L269.119 358.048C268.973 358.34 268.827 358.631 268.39 358.631C268.39 358.631 267.952 358.485 267.952 357.902C267.952 357.465 267.952 356.882 266.203 356.882H261.975C261.829 357.319 261.684 358.777 261.684 359.36C265.766 360.089 269.993 362.422 269.993 366.649C269.993 370.148 267.223 374.084 261.392 374.084C260.517 374.084 258.914 373.501 258.914 373.501C258.33 373.21 258.33 372.627 258.33 372.189V371.752V368.836C258.33 368.69 258.622 368.107 259.059 368.107C259.351 368.107 259.643 368.107 259.643 368.836C259.643 370.877 260.663 371.898 262.704 371.898C264.453 371.898 266.494 370.731 266.494 367.67C266.494 363.88 262.121 362.276 260.517 362.13C259.788 362.13 259.788 361.255 259.788 361.255L260.371 354.695C260.371 354.549 260.517 354.112 261.1 354.112H267.223Z" fill="#00387F"/>
<path fill-rule="evenodd" clip-rule="evenodd" d="M120.274 273.201C119.545 270.431 118.962 267.807 118.379 265.183H118.525C158.179 257.748 199.436 253.957 241.422 253.957C283.408 253.957 324.665 257.748 364.464 265.183C363.881 267.952 363.298 270.577 362.569 273.201C356.738 295.943 346.095 322.33 324.228 347.697L241.422 264.745L241.276 264.891L241.13 264.745L158.481 347.539C136.85 322.222 126.239 296.042 120.274 273.201Z" fill="#00387F"/>
<path d="M241.274 246.668C198.705 246.668 157.157 250.604 116.92 257.893C117.357 260.372 117.795 262.704 118.232 265.182C158.031 257.747 198.997 253.957 241.129 253.957C283.26 253.957 324.372 257.747 364.171 265.182C364.608 262.704 365.046 260.372 365.483 257.893C325.247 250.458 283.698 246.668 241.129 246.668H241.274Z" fill="white"/>
<path fill-rule="evenodd" clip-rule="evenodd" d="M368.399 219.114V132.955C368.399 132.955 294.777 135.288 241.274 94.1764C187.771 135.434 114.295 132.955 114.295 132.955V219.114C114.295 219.114 113.858 237.629 117.065 257.893C157.302 250.458 198.851 246.667 241.42 246.667C283.989 246.667 325.538 250.604 365.775 257.893C368.982 237.629 368.544 219.114 368.544 219.114H368.399ZM190.798 186.041C190.724 184.926 190.687 183.801 190.687 182.668C190.687 181.501 190.726 180.342 190.805 179.194C192.517 153.809 212.858 133.628 238.312 132.166C239.292 132.109 240.28 132.081 241.274 132.081C247.78 132.081 253.994 133.301 259.701 135.527C260.516 135.844 261.321 136.183 262.115 136.541C279.676 144.465 291.863 162.112 291.863 182.668C291.863 183.831 291.823 184.985 291.746 186.128C289.966 212.361 268.097 233.11 241.275 233.11C214.418 233.11 192.527 212.441 190.798 186.041ZM154.971 202.787H166.779C166.779 202.787 167.508 202.496 167.508 202.058V177.712C167.508 177.712 167.217 176.983 166.779 176.983H157.157C155.554 176.983 154.242 178.295 154.242 179.899V202.058C154.242 202.058 154.533 202.787 154.971 202.787ZM150.595 202.787H138.787C138.35 202.787 138.058 202.058 138.058 202.058V177.712C138.058 177.421 138.787 176.983 138.787 176.983H148.409C150.012 176.983 151.324 178.295 151.324 179.899V202.058C151.324 202.496 150.595 202.787 150.595 202.787ZM173.193 181.211H170.715V205.411H155.699V205.702C155.699 207.16 154.241 208.327 152.783 208.327C151.325 208.327 150.013 207.16 149.867 205.702V205.411H134.852V181.211H132.373C132.373 181.211 131.644 181.502 131.644 181.94V207.598C131.644 207.598 131.936 208.327 132.373 208.327H147.389C148.41 210.076 150.451 211.534 152.783 211.534C155.116 211.534 157.157 210.076 158.177 208.327H173.193C173.193 208.327 173.922 207.889 173.922 207.598V181.94C173.922 181.94 173.63 181.211 173.193 181.211ZM323.645 200.162H333.412C333.995 200.162 334.287 201.037 334.287 201.037L331.08 221.447C330.934 222.322 330.205 223.05 329.33 223.05H327.727C326.852 223.05 325.977 222.322 325.977 221.447L322.77 201.037C322.77 200.6 323.645 200.162 323.645 200.162ZM335.015 191.123C337.493 188.937 343.47 182.522 342.887 178.877C342.534 176.97 339.784 174.686 336.961 172.341C333.958 169.846 330.871 167.282 330.495 165.028C330.204 163.133 330.933 160.509 331.953 158.322C332.099 157.884 331.662 157.884 331.37 158.322C331.224 158.322 322.186 165.028 322.186 169.839C322.186 171.734 323.498 173.629 325.684 175.524C326.431 176.147 327.284 176.742 328.163 177.356L328.164 177.357L328.164 177.357C329.345 178.182 330.575 179.041 331.662 180.044C332.536 180.918 333.265 181.647 333.703 182.959C334.577 185.438 332.099 189.374 330.495 191.123H326.997C328.454 189.52 329.912 187.041 330.495 184.855C331.15 182.368 328.749 180.733 326.089 178.921C322.823 176.697 319.166 174.207 320.29 169.547C320.29 169.547 319.999 169.11 319.707 169.401C319.707 169.401 314.313 174.795 314.313 178.44C314.313 180.176 316.329 181.865 318.606 183.773L318.606 183.774C320.345 185.23 322.235 186.815 323.498 188.645C323.935 189.52 323.935 190.54 323.498 191.269H317.812C317.812 191.269 316.5 191.123 317.083 192.435L318.541 197.101C318.541 197.101 318.833 197.83 319.707 197.83H337.93C338.805 197.83 339.097 197.101 339.097 197.101L340.7 192.29C341.138 191.123 339.826 191.123 339.826 191.123H335.306H335.015Z" fill="#00387F"/>
</g>
</svg>
